<svg width="559" height="363" viewBox="0 0 559 363" fill="none" xmlns="http://www.w3.org/2000/svg">
<rect width="559" height="363" fill="#F5F5F5"/>
<path d="M114.711 160.937L148.148 36.1484L272.937 2.71145L364.289 94.063L330.852 218.852L206.063 252.289L114.711 160.937Z" stroke="black" stroke-width="4"/>
<mask id="path-2-outside-1_0_1" maskUnits="userSpaceOnUse" x="170" y="69" width="90" height="94" fill="black">
<rect fill="white" x="170" y="69" width="90" height="94"/>
<path d="M198.973 73.6875L214.676 110.719L230.438 73.6875H252.586L225.164 128.355V159H204.246V128.355L176.766 73.6875H198.973Z"/>
</mask>
<path d="M198.973 73.6875L202.655 72.1259L201.621 69.6875H198.973V73.6875ZM214.676 110.719L210.993 112.28L214.669 120.948L218.356 112.285L214.676 110.719ZM230.438 73.6875V69.6875H227.793L226.757 72.121L230.438 73.6875ZM252.586 73.6875L256.161 75.481L259.067 69.6875H252.586V73.6875ZM225.164 128.355L221.589 126.562L221.164 127.408V128.355H225.164ZM225.164 159V163H229.164V159H225.164ZM204.246 159H200.246V163H204.246V159ZM204.246 128.355H208.246V127.407L207.82 126.559L204.246 128.355ZM176.766 73.6875V69.6875H170.278L173.192 75.484L176.766 73.6875ZM195.29 75.2491L210.993 112.28L218.358 109.157L202.655 72.1259L195.29 75.2491ZM218.356 112.285L234.118 75.254L226.757 72.121L210.995 109.152L218.356 112.285ZM230.438 77.6875H252.586V69.6875H230.438V77.6875ZM249.011 71.894L221.589 126.562L228.739 130.149L256.161 75.481L249.011 71.894ZM221.164 128.355V159H229.164V128.355H221.164ZM225.164 155H204.246V163H225.164V155ZM208.246 159V128.355H200.246V159H208.246ZM207.82 126.559L180.339 71.891L173.192 75.484L200.672 130.152L207.82 126.559ZM176.766 77.6875H198.973V69.6875H176.766V77.6875Z" fill="black" mask="url(#path-2-outside-1_0_1)"/>
<path d="M385.756 113.531L352.319 238.319L227.531 271.756L136.179 180.405L169.616 55.6162L294.405 22.1792L385.756 113.531Z" stroke="black" stroke-width="4"/>
<mask id="path-5-outside-2_0_1" maskUnits="userSpaceOnUse" x="245" y="122" width="85" height="94" fill="black">
<rect fill="white" x="245" y="122" width="85" height="94"/>
<path d="M270.07 126.688V212H249.504V126.688H270.07ZM320.988 126.688L287.941 169.93L268.605 191.082L264.855 172.215L277.219 153.465L295.617 126.688H320.988ZM296.672 212L274.641 173.562L290.637 161.785L320.988 212H296.672Z"/>
</mask>
<path d="M270.07 126.688H274.07V122.688H270.07V126.688ZM270.07 212V216H274.07V212H270.07ZM249.504 212H245.504V216H249.504V212ZM249.504 126.688V122.688H245.504V126.688H249.504ZM320.988 126.688L324.166 129.116L329.08 122.688H320.988V126.688ZM287.941 169.93L290.894 172.629L291.013 172.498L291.12 172.359L287.941 169.93ZM268.605 191.082L264.682 191.862L266.223 199.616L271.558 193.781L268.605 191.082ZM264.855 172.215L261.516 170.013L260.612 171.384L260.932 172.995L264.855 172.215ZM277.219 153.465L273.922 151.2L273.9 151.231L273.879 151.263L277.219 153.465ZM295.617 126.688V122.688H293.512L292.32 124.422L295.617 126.688ZM296.672 212L293.202 213.989L294.354 216H296.672V212ZM274.641 173.562L272.269 170.341L269.396 172.457L271.17 175.552L274.641 173.562ZM290.637 161.785L294.06 159.716L291.793 155.966L288.265 158.564L290.637 161.785ZM320.988 212V216H328.08L324.412 209.931L320.988 212ZM266.07 126.688V212H274.07V126.688H266.07ZM270.07 208H249.504V216H270.07V208ZM253.504 212V126.688H245.504V212H253.504ZM249.504 130.688H270.07V122.688H249.504V130.688ZM317.81 124.259L284.763 167.501L291.12 172.359L324.166 129.116L317.81 124.259ZM284.989 167.231L265.653 188.383L271.558 193.781L290.894 172.629L284.989 167.231ZM272.529 190.302L268.779 171.435L260.932 172.995L264.682 191.862L272.529 190.302ZM268.195 174.417L280.558 155.667L273.879 151.263L261.516 170.013L268.195 174.417ZM280.516 155.73L298.914 128.953L292.32 124.422L273.922 151.2L280.516 155.73ZM295.617 130.688H320.988V122.688H295.617V130.688ZM300.142 210.011L278.111 171.573L271.17 175.552L293.202 213.989L300.142 210.011ZM277.012 176.784L293.008 165.006L288.265 158.564L272.269 170.341L277.012 176.784ZM287.213 163.854L317.565 214.069L324.412 209.931L294.06 159.716L287.213 163.854ZM320.988 208H296.672V216H320.988V208Z" fill="black" mask="url(#path-5-outside-2_0_1)"/>
<path d="M40.2188 282.219L40.4062 283.25C40.4688 284.094 40.4062 284.781 40.2188 285.312C40.125 285.594 40.0312 285.875 39.9375 286.156C39.875 286.438 39.8125 286.719 39.75 287C39.4375 287.594 39.1562 288.062 38.9062 288.406C38.625 288.781 38.4062 289.156 38.25 289.531C38.1562 289.656 38.0625 289.781 37.9688 289.906C37.9062 290.031 37.8438 290.156 37.7812 290.281C37.7188 290.406 37.6562 290.531 37.5938 290.656C37.5312 290.75 37.4688 290.844 37.4062 290.938C37.25 291.219 37.0312 291.5 36.75 291.781C36.4688 292.062 36.25 292.344 36.0938 292.625C36 292.781 35.9062 292.938 35.8125 293.094C35.7188 293.219 35.6406 293.359 35.5781 293.516C35.5156 293.641 35.4375 293.781 35.3438 293.938C35.25 294.094 35.1562 294.25 35.0625 294.406C34.75 294.844 34.4531 295.281 34.1719 295.719C33.8906 296.156 33.625 296.625 33.375 297.125C33.1875 297.438 33.0469 297.656 32.9531 297.781C32.7656 298.031 32.6562 298.281 32.625 298.531C32.3125 298.906 31.9531 299.344 31.5469 299.844C31.1406 300.344 30.8125 300.844 30.5625 301.344C30.4062 301.594 30.25 301.969 30.0938 302.469C29.9375 302.938 29.7656 303.328 29.5781 303.641C29.4844 303.797 29.3438 304 29.1562 304.25C28.9688 304.5 28.7812 304.766 28.5938 305.047C28.4062 305.297 28.2031 305.547 27.9844 305.797C27.5781 306.297 27.2812 306.906 27.0938 307.625C26.9062 308.719 26.5625 309.625 26.0625 310.344C25.5312 311.125 25.0625 311.938 24.6562 312.781C24.4688 313.219 24.2812 313.672 24.0938 314.141C23.9062 314.578 23.7031 315.031 23.4844 315.5C23.2656 315.969 23.0625 316.438 22.875 316.906C22.7188 317.375 22.5625 317.844 22.4062 318.312C22.2188 318.875 22.0312 319.438 21.8438 320C21.6562 320.531 21.4531 321.062 21.2344 321.594C20.8594 322.562 20.5938 323.719 20.4375 325.062C20.9375 325.562 21.5156 325.641 22.1719 325.297C22.8281 324.953 23.3125 324.594 23.625 324.219C24.25 323.969 24.75 323.594 25.125 323.094C26.3125 322.594 27.2812 321.984 28.0312 321.266C28.7812 320.547 29.5625 319.75 30.375 318.875C30.7188 318.844 31 318.688 31.2188 318.406C31.4062 318.156 31.6562 317.969 31.9688 317.844C32.7188 316.719 33.5781 315.641 34.5469 314.609C35.5156 313.578 36.5 312.625 37.5 311.75C37.625 311.438 37.8125 311.188 38.0625 311C38.375 310.75 38.625 310.531 38.8125 310.344C39.25 309.906 39.6562 309.453 40.0312 308.984C40.4062 308.516 40.8438 308.031 41.3438 307.531C41.5312 307.219 41.7812 306.969 42.0938 306.781C42.4375 306.594 42.6875 306.438 42.8438 306.312C43.125 306.031 43.4375 305.781 43.7812 305.562C44.3125 305.094 45 304.578 45.8438 304.016C46.6875 303.453 47.375 302.938 47.9062 302.469C48.2188 302.094 48.5469 301.703 48.8906 301.297C49.2344 300.891 49.625 300.531 50.0625 300.219C50.2188 299.875 50.375 299.547 50.5312 299.234C50.6875 298.922 50.8438 298.609 51 298.297C51.3438 297.641 51.625 297 51.8438 296.375C52.3438 295.781 52.7188 295.156 52.9688 294.5C54 293.031 54.7344 291.641 55.1719 290.328C55.6094 288.984 56.0625 287.688 56.5312 286.438C57.0312 285.188 57.8125 283.938 58.875 282.688C59.375 282.25 59.9688 281.859 60.6562 281.516C61.3438 281.172 62.0312 280.844 62.7188 280.531C63.6562 280.125 64.5938 279.906 65.5312 279.875C66.5625 279.812 67.4688 279.719 68.25 279.594C68.625 279.719 68.8125 279.938 68.8125 280.25C68.8125 280.406 68.7969 280.594 68.7656 280.812C68.7656 281 68.75 281.219 68.7188 281.469C68.7188 281.938 68.6094 282.344 68.3906 282.688C68.1719 283.031 68.0625 283.375 68.0625 283.719C67.5625 284.812 67.0625 285.828 66.5625 286.766C66.0938 287.672 65.625 288.5 65.1562 289.25C65.0312 289.594 64.9062 289.922 64.7812 290.234C64.6875 290.547 64.5938 290.859 64.5 291.172C64.3125 291.797 64.0625 292.438 63.75 293.094C63.6562 293.25 63.5156 293.516 63.3281 293.891C63.1406 294.266 63 294.531 62.9062 294.688C62.7188 295 62.5469 295.203 62.3906 295.297C62.2344 295.391 62.0625 295.594 61.875 295.906C61.8125 296.094 61.75 296.266 61.6875 296.422C61.6562 296.578 61.6094 296.734 61.5469 296.891C61.4219 297.266 61.3125 297.562 61.2188 297.781C61.0938 298.031 60.9688 298.281 60.8438 298.531C60.7188 298.781 60.5938 299.031 60.4688 299.281C60.0312 300 59.75 300.531 59.625 300.875C59.5625 301.062 59.5 301.25 59.4375 301.438C59.375 301.594 59.3125 301.75 59.25 301.906C58.9688 302.344 58.7031 302.922 58.4531 303.641C58.2344 304.266 57.9062 304.844 57.4688 305.375C57.0938 305.969 56.9062 306.344 56.9062 306.5C56.9062 306.625 56.8438 306.75 56.7188 306.875C56.2812 307.5 56.0625 307.859 56.0625 307.953C56.0625 307.984 56.0312 308.094 55.9688 308.281C55.6562 308.812 55.3906 309.312 55.1719 309.781C54.9531 310.219 54.7656 310.625 54.6094 311C54.2969 311.812 53.9062 312.562 53.4375 313.25C53.25 313.812 53.0625 314.391 52.875 314.984C52.6875 315.547 52.5156 316.125 52.3594 316.719C52.2031 317.312 52.0156 317.891 51.7969 318.453C51.6094 319.016 51.4062 319.562 51.1875 320.094C51.125 320.594 51.0312 321.078 50.9062 321.547C50.8125 321.984 50.6875 322.406 50.5312 322.812C50.375 323.219 50.2188 323.641 50.0625 324.078C49.9062 324.516 49.75 324.969 49.5938 325.438C49.0938 326.5 48.75 327.531 48.5625 328.531C48.1875 329.312 47.8594 329.969 47.5781 330.5C47.3281 330.969 47.125 331.531 46.9688 332.188C46.3125 332.75 45.875 333.312 45.6562 333.875C45.375 334.062 45.1719 334.266 45.0469 334.484C44.9844 334.609 44.9062 334.75 44.8125 334.906C44.7188 335.062 44.625 335.219 44.5312 335.375C44.375 335.531 44.25 335.641 44.1562 335.703C44 335.797 43.9062 336 43.875 336.312C42.9688 337.406 42.0938 338.422 41.25 339.359C40.4688 340.234 39.7188 341.219 39 342.312C38.3125 343 37.6406 343.719 36.9844 344.469C36.6719 344.844 36.3438 345.219 36 345.594C35.6562 345.969 35.3125 346.344 34.9688 346.719C34.2812 347.344 33.6094 347.969 32.9531 348.594C32.2969 349.219 31.7188 349.875 31.2188 350.562C30.5312 351.062 29.875 351.578 29.25 352.109C28.625 352.641 28.0312 353.156 27.4688 353.656L24.7969 355.719C24.3906 356.031 23.9844 356.328 23.5781 356.609C23.2031 356.922 22.8125 357.219 22.4062 357.5C21.9375 357.812 21.4688 358.094 21 358.344C20.5625 358.625 20.125 358.891 19.6875 359.141C19.25 359.359 18.8125 359.609 18.375 359.891C17.9375 360.172 17.5 360.469 17.0625 360.781L15.75 361.297C15.625 361.328 15.4844 361.375 15.3281 361.438C15.2031 361.5 15.0625 361.562 14.9062 361.625C14.5938 361.656 14.2656 361.75 13.9219 361.906C13.6406 362.031 13.3438 362.094 13.0312 362.094C12.7188 361.938 12.5 361.875 12.375 361.906C12.25 361.938 12.125 361.938 12 361.906C11.5625 361.719 11.2812 361.641 11.1562 361.672C11.0625 361.703 10.9375 361.719 10.7812 361.719C10.5625 361.688 10.2969 361.578 9.98438 361.391C9.67188 361.203 9.40625 361.062 9.1875 360.969C8.96875 360.875 8.70312 360.797 8.39062 360.734C8.14062 360.672 7.90625 360.562 7.6875 360.406C7.125 359.75 6.60938 359.359 6.14062 359.234C5.57812 359.078 5.09375 358.844 4.6875 358.531C4.5625 358.406 4.42188 358.266 4.26562 358.109C4.10938 357.953 3.9375 357.812 3.75 357.688C3.375 357.406 3.0625 356.938 2.8125 356.281C2.6875 356 2.625 355.719 2.625 355.438C2.625 355.156 2.5625 354.875 2.4375 354.594C2 353.344 1.59375 352.016 1.21875 350.609C0.84375 349.203 0.65625 347.75 0.65625 346.25V344.469C0.6875 344.188 0.765625 343.906 0.890625 343.625C0.984375 343.375 1.03125 343.094 1.03125 342.781C1.03125 342.562 0.984375 342.391 0.890625 342.266C0.765625 342.109 0.6875 341.938 0.65625 341.75C0.59375 341.5 0.53125 341.172 0.46875 340.766C0.40625 340.359 0.4375 340.031 0.5625 339.781C0.625 339.656 0.796875 339.422 1.07812 339.078C1.35938 338.734 1.59375 338.5 1.78125 338.375C2.5625 338.188 3.125 337.938 3.46875 337.625C3.8125 337.312 4.25 337.062 4.78125 336.875C5.21875 337.031 5.57812 336.984 5.85938 336.734C6.14062 336.484 6.46875 336.344 6.84375 336.312C7.59375 336.188 8.21875 336.547 8.71875 337.391C9.21875 338.234 9.3125 339.125 9 340.062C8.875 340.5 8.75 340.953 8.625 341.422C8.5 341.891 8.40625 342.375 8.34375 342.875C8.21875 343.75 8.17188 344.766 8.20312 345.922C8.23438 347.078 8.3125 348.094 8.4375 348.969C8.5 349.281 8.5625 349.625 8.625 350C8.6875 350.344 8.75 350.719 8.8125 351.125C8.875 351.531 8.9375 351.906 9 352.25C9.09375 352.594 9.1875 352.906 9.28125 353.188C9.84375 354.156 10.6562 355.156 11.7188 356.188C11.9062 356.125 12.125 356.094 12.375 356.094C12.625 356.094 12.875 356.125 13.125 356.188C13.75 355.844 14.2188 355.609 14.5312 355.484L15.4688 355.062C16.4688 354.344 17.6094 353.406 18.8906 352.25C20.0781 351.156 21.2188 350.156 22.3125 349.25C23.375 348.5 24.25 347.688 24.9375 346.812C25.75 345.75 26.625 344.75 27.5625 343.812C27.8125 343.5 28.0625 343.203 28.3125 342.922C28.5938 342.609 28.8594 342.312 29.1094 342.031L30.6562 340.344C31.1562 339.719 31.6562 339.109 32.1562 338.516C32.6562 337.922 33.1562 337.344 33.6562 336.781C34.1875 335.875 34.6875 335.141 35.1562 334.578C35.6875 333.953 36.1562 333.281 36.5625 332.562C37.125 331.969 37.625 331.297 38.0625 330.547C38.5 329.828 38.9688 329.125 39.4688 328.438C40.0938 327.438 40.6719 326.453 41.2031 325.484C41.7344 324.516 42.2188 323.406 42.6562 322.156C42.9062 321.469 43.1406 320.844 43.3594 320.281C43.5781 319.719 43.8125 319.125 44.0625 318.5C44.4688 317.469 44.8906 316.5 45.3281 315.594C45.5781 315.094 45.7969 314.594 45.9844 314.094C46.1719 313.594 46.3438 313.094 46.5 312.594C46.1562 312.812 45.8281 313.031 45.5156 313.25C45.2344 313.469 44.9688 313.688 44.7188 313.906C44.4688 314.125 44.1875 314.344 43.875 314.562C43.5938 314.75 43.2812 314.938 42.9375 315.125C42.5 315.625 42.0469 316.078 41.5781 316.484C41.1094 316.891 40.625 317.281 40.125 317.656C39.375 318.625 38.5312 319.516 37.5938 320.328C37.125 320.734 36.6562 321.141 36.1875 321.547C35.75 321.953 35.3125 322.375 34.875 322.812C33.9375 323.688 33.0781 324.594 32.2969 325.531C31.5156 326.469 30.6562 327.375 29.7188 328.25C29.5 328.281 29.1875 328.5 28.7812 328.906C28.3125 329.125 27.8594 329.453 27.4219 329.891C27.0156 330.297 26.5 330.625 25.875 330.875C25.6875 330.938 25.5312 330.969 25.4062 330.969C25.1875 330.969 25 331.031 24.8438 331.156C24.7188 331.188 24.5938 331.219 24.4688 331.25C24.375 331.281 24.2969 331.312 24.2344 331.344C24.1719 331.375 24.0781 331.406 23.9531 331.438C23.8281 331.469 23.6875 331.5 23.5312 331.531C23.375 331.562 23.2188 331.609 23.0625 331.672C22.9062 331.734 22.75 331.797 22.5938 331.859C22.4375 331.922 22.2812 331.984 22.125 332.047C21.9688 332.109 21.8125 332.156 21.6562 332.188C21.0938 332.25 20.3906 332.188 19.5469 332C18.7031 331.812 17.9688 331.625 17.3438 331.438L16.5 331.109C16.2188 330.984 15.9688 330.844 15.75 330.688C15.2812 330.344 14.9688 329.938 14.8125 329.469C14.625 328.938 14.375 328.406 14.0625 327.875C13.875 327.531 13.6719 327.234 13.4531 326.984C13.2656 326.766 13.0938 326.469 12.9375 326.094C13 325.719 12.9688 325.391 12.8438 325.109C12.7188 324.828 12.6875 324.438 12.75 323.938C12.75 323.625 12.7969 323.344 12.8906 323.094C12.9844 322.844 13.0938 322.562 13.2188 322.25C13.2812 321.938 13.3438 321.641 13.4062 321.359C13.4688 321.078 13.5625 320.781 13.6875 320.469C13.875 319.531 14.1094 318.641 14.3906 317.797C14.6719 316.953 14.9688 316.125 15.2812 315.312C16.3438 313.062 17.2812 311.078 18.0938 309.359C18.9062 307.641 19.9062 306.062 21.0938 304.625C21.4688 303.812 21.7969 303.125 22.0781 302.562C22.3594 302 22.6875 301.469 23.0625 300.969C23.6875 299.594 24.2969 298.281 24.8906 297.031C25.4844 295.781 26.2188 294.625 27.0938 293.562C27.4688 292.156 27.9844 290.906 28.6406 289.812C28.9844 289.281 29.3125 288.734 29.625 288.172C29.9375 287.578 30.25 286.969 30.5625 286.344C29.875 286.469 29.2812 286.766 28.7812 287.234C28.3125 287.672 27.75 288.062 27.0938 288.406C25.6875 289.219 24.5938 290.203 23.8125 291.359C23.0625 292.453 22.0625 293.406 20.8125 294.219C20.125 294.781 19.6094 295.203 19.2656 295.484C18.9219 295.766 18.5938 296.062 18.2812 296.375C17.4375 296.375 16.7031 296.547 16.0781 296.891C15.4844 297.234 14.8594 297.531 14.2031 297.781C13.5469 298.031 12.75 298.031 11.8125 297.781C11.375 297.969 10.8125 297.938 10.125 297.688C9.8125 297.5 9.59375 297.359 9.46875 297.266C9.25 297.109 9 297.031 8.71875 297.031C8.28125 296.781 7.98438 296.312 7.82812 295.625C7.67188 294.938 7.71875 294.312 7.96875 293.75C8.71875 293.312 9.5 292.938 10.3125 292.625C10.5625 292.5 10.7969 292.391 11.0156 292.297C11.2344 292.172 11.4531 292.047 11.6719 291.922C11.8906 291.797 12.1094 291.688 12.3281 291.594C12.5469 291.469 12.7812 291.344 13.0312 291.219C13.2188 291.125 13.4062 291.031 13.5938 290.938C13.7812 290.844 13.9531 290.766 14.1094 290.703C14.4531 290.547 14.8125 290.312 15.1875 290C16.25 289.125 17.3438 288.312 18.4688 287.562C20.125 286 21.9531 284.594 23.9531 283.344C26.0156 282.062 27.7812 280.562 29.25 278.844C29.7188 278.812 30.1406 278.656 30.5156 278.375C30.8906 278.125 31.2812 278.062 31.6875 278.188C33.25 278.75 34.375 279.25 35.0625 279.688C35.6875 279.625 36.25 279.75 36.75 280.062C37.0312 280.219 37.2969 280.359 37.5469 280.484C37.7969 280.609 38.0312 280.719 38.25 280.812C38.625 280.938 38.9531 281.062 39.2344 281.188C39.5156 281.312 39.8438 281.656 40.2188 282.219ZM80.0625 323.938L79.9688 324.688C80.0312 324.906 79.9688 325.281 79.7812 325.812C79.4688 326.188 79.2812 326.594 79.2188 327.031C79.0938 327.281 78.9844 327.5 78.8906 327.688C78.7969 327.875 78.7188 328.125 78.6562 328.438C78.5312 328.812 78.4844 329.25 78.5156 329.75C78.5469 330 78.5469 330.25 78.5156 330.5C78.5156 330.719 78.5 330.938 78.4688 331.156C78.3438 331.844 78.25 332.516 78.1875 333.172C78.125 333.828 78.0625 334.5 78 335.188C78 335.875 77.9375 336.656 77.8125 337.531C77.6875 338.406 77.5625 339.188 77.4375 339.875C77.7188 340.375 77.875 340.844 77.9062 341.281C77.9375 341.75 78.1562 342.156 78.5625 342.5C79.8125 342.312 80.8125 342.016 81.5625 341.609C82.3125 341.203 83.0312 340.625 83.7188 339.875C84.2188 339.656 84.6094 339.438 84.8906 339.219C85.1406 339 85.5 338.75 85.9688 338.469L86.7188 337.719C87.4688 337.312 87.8906 337.062 87.9844 336.969C88.0469 336.906 88.125 336.844 88.2188 336.781C88.3438 336.719 88.4688 336.656 88.5938 336.594C89.6562 335.906 90.4688 335.188 91.0312 334.438C91.5 334.062 91.8906 333.672 92.2031 333.266C92.4531 332.922 92.9375 332.594 93.6562 332.281C94.0625 331.781 94.5156 331.359 95.0156 331.016C95.5156 330.672 95.9688 330.25 96.375 329.75C96.7188 329.75 96.9688 329.812 97.125 329.938C97.2188 330 97.3125 330.062 97.4062 330.125C97.5312 330.188 97.6562 330.25 97.7812 330.312C97.9688 330.812 98 331.328 97.875 331.859C97.75 332.391 97.5312 332.875 97.2188 333.312C96.9062 333.719 96.75 333.969 96.75 334.062C96.75 334.125 96.7188 334.188 96.6562 334.25C96.4688 334.469 96.2344 334.703 95.9531 334.953C95.6719 335.172 95.4375 335.406 95.25 335.656C94.9375 336.219 94.6875 336.5 94.5 336.5C94.3125 336.5 94.1562 336.562 94.0312 336.688C93.4688 337.031 93.0781 337.281 92.8594 337.438C92.6094 337.656 92.25 337.906 91.7812 338.188C91.125 338.531 90.7188 338.781 90.5625 338.938C90.4062 339.094 90.2812 339.188 90.1875 339.219C89.4375 340.062 88.7031 340.766 87.9844 341.328C87.3281 341.828 86.625 342.531 85.875 343.438C85.625 343.625 85.375 343.812 85.125 344C84.875 344.188 84.6562 344.438 84.4688 344.75C83.9062 345.125 83.4531 345.5 83.1094 345.875C82.7656 346.25 82.375 346.688 81.9375 347.188C81.5625 347.375 81.1562 347.641 80.7188 347.984C80.1875 348.391 79.7188 348.688 79.3125 348.875C79.1562 348.969 78.8906 349.109 78.5156 349.297C78.2031 349.453 77.9062 349.531 77.625 349.531C76.9062 349.656 76.2188 349.594 75.5625 349.344C74.9688 349.125 74.375 348.938 73.7812 348.781C73.5312 348.406 73.2188 348.094 72.8438 347.844C72.2812 347.156 71.875 346.344 71.625 345.406C71.375 344.469 71.125 343.469 70.875 342.406C70.3125 342.781 69.8438 343.188 69.4688 343.625C69.0938 344.094 68.5312 344.5 67.7812 344.844C67.1562 345.438 66.5156 346.031 65.8594 346.625C65.2031 347.188 64.5156 347.734 63.7969 348.266C63.1094 348.797 62.4062 349.359 61.6875 349.953C60.9688 350.516 60.25 351.094 59.5312 351.688C59.0312 352.188 58.6875 352.375 58.5 352.25C57.9375 352.938 56.9375 353.156 55.5 352.906C55 352.656 54.4375 352.438 53.8125 352.25C53.375 352.125 52.875 351.938 52.3125 351.688C51.25 351.5 50.3594 351.031 49.6406 350.281C48.9219 349.531 48.3125 348.656 47.8125 347.656C47.625 347.125 47.4844 346.656 47.3906 346.25C47.3594 346.031 47.3125 345.797 47.25 345.547C47.1875 345.297 47.125 345.031 47.0625 344.75C47.0312 344.219 46.9375 343.797 46.7812 343.484C46.6562 343.141 46.6562 342.812 46.7812 342.5C46.6562 342.344 46.625 342.141 46.6875 341.891C46.75 341.578 46.7812 341.344 46.7812 341.188C46.7188 340.312 46.7969 339.375 47.0156 338.375C47.2344 337.375 47.5312 336.469 47.9062 335.656C48.0938 335.344 48.3438 335.031 48.6562 334.719C48.8125 334.531 48.9062 334.344 48.9375 334.156C48.9688 334 49.0625 333.844 49.2188 333.688C49.375 333.5 49.5625 333.312 49.7812 333.125C50.0938 332.875 50.3125 332.688 50.4375 332.562C50.5938 332.344 50.75 332.141 50.9062 331.953C51.0938 331.734 51.2969 331.547 51.5156 331.391C51.7344 331.234 51.9375 331.062 52.125 330.875C52.3125 330.688 52.5 330.5 52.6875 330.312C52.9062 330.094 53.0781 329.875 53.2031 329.656C53.3594 329.406 53.5938 329.219 53.9062 329.094C54.1562 328.656 54.4375 328.297 54.75 328.016C55.0625 327.734 55.4062 327.438 55.7812 327.125C56.8438 325.844 58.1562 324.75 59.7188 323.844C61.3125 322.938 62.7188 321.938 63.9375 320.844C64.375 320.656 64.75 320.438 65.0625 320.188C65.375 319.938 65.6875 319.688 66 319.438C66.7812 318.75 67.625 318.531 68.5312 318.781L70.9688 319.438C71.5938 320 72.2031 320.562 72.7969 321.125C73.3906 321.688 73.9062 322.312 74.3438 323C74.5625 322.969 74.7969 322.953 75.0469 322.953C75.2969 322.922 75.5625 322.922 75.8438 322.953C76.4062 323.016 77 322.969 77.625 322.812C77.8125 322.812 78 322.766 78.1875 322.672C78.375 322.578 78.5312 322.531 78.6562 322.531C79.5938 322.844 80.0625 323.312 80.0625 323.938ZM67.6875 325.344C66 326.156 64.4688 327.109 63.0938 328.203C61.7188 329.297 60.4062 330.469 59.1562 331.719C59 331.875 58.8281 332.031 58.6406 332.188C58.4844 332.312 58.3281 332.453 58.1719 332.609C58.0156 332.734 57.8594 332.875 57.7031 333.031C57.5469 333.188 57.4062 333.344 57.2812 333.5C57.0312 333.812 56.7969 334.188 56.5781 334.625C56.3594 335.062 56.1562 335.469 55.9688 335.844C55.9062 335.969 55.8438 336.094 55.7812 336.219C55.7188 336.312 55.6562 336.391 55.5938 336.453C55.5312 336.516 55.4688 336.594 55.4062 336.688C55.3438 336.781 55.2812 336.875 55.2188 336.969C55.0938 337.281 55.0469 337.594 55.0781 337.906C55.1094 338.125 55.125 338.469 55.125 338.938V339.875C55.125 340.062 55.1562 340.375 55.2188 340.812C55.4062 341.5 55.5 342.188 55.5 342.875C55.5 343.375 55.5469 343.984 55.6406 344.703C55.7344 345.422 55.9688 345.906 56.3438 346.156C56.75 346.406 57.1406 346.469 57.5156 346.344C57.9531 346.188 58.3125 346.094 58.5938 346.062C60.7812 344.375 62.8438 342.609 64.7812 340.766C66.7188 338.922 68.4375 336.844 69.9375 334.531C69.8125 333 69.7969 331.422 69.8906 329.797C69.9844 328.266 69.8438 326.844 69.4688 325.531C69.2188 325.375 68.9219 325.328 68.5781 325.391C68.3281 325.422 68.0312 325.406 67.6875 325.344ZM99.6562 335.75L100.219 336.219C100.375 336.469 100.328 336.812 100.078 337.25C99.9531 337.469 99.8438 337.672 99.75 337.859C99.6875 338.047 99.625 338.219 99.5625 338.375C99.5938 338.5 99.625 338.625 99.6562 338.75C99.6875 338.844 99.7188 338.922 99.75 338.984C99.8125 339.172 99.7812 339.375 99.6562 339.594C100.094 339.938 100.375 340.297 100.5 340.672C100.656 341.172 100.875 341.594 101.156 341.938C101.531 342.344 101.859 342.656 102.141 342.875C102.484 343.094 102.812 343.375 103.125 343.719C103.469 343.531 103.719 343.438 103.875 343.438C104.094 343.438 104.344 343.375 104.625 343.25C105.156 342.562 105.594 341.688 105.938 340.625C106 340.375 106.062 340.094 106.125 339.781C106.188 339.469 106.219 339.188 106.219 338.938C106.188 338.125 105.938 337.281 105.469 336.406C105 335.5 104.656 334.656 104.438 333.875C104.188 333.344 104.109 332.781 104.203 332.188C104.297 331.531 104.281 330.969 104.156 330.5C104.125 330.188 104.031 329.938 103.875 329.75C103.812 329.656 103.75 329.562 103.688 329.469C103.625 329.344 103.562 329.219 103.5 329.094C103.375 328.562 103.328 328 103.359 327.406C103.422 326.781 103.281 326.25 102.938 325.812C102.562 326.188 101.969 326.906 101.156 327.969C100.344 329 99.5312 330.031 98.7188 331.062C97.9375 332.094 97.375 332.781 97.0312 333.125C96.875 333.344 96.7031 333.562 96.5156 333.781C96.3594 333.969 96.1875 334.141 96 334.297C95.8125 334.453 95.625 334.641 95.4375 334.859C95.2812 335.047 95.125 335.25 94.9688 335.469C93.9688 336.719 93.2188 337.641 92.7188 338.234C92.25 338.828 91.7812 339.438 91.3125 340.062C90.8438 340.688 90.0938 341.688 89.0625 343.062C88.7188 343.562 88.1406 344.375 87.3281 345.5C86.4844 346.625 85.6875 347.719 84.9375 348.781C84.1562 349.812 83.6875 350.5 83.5312 350.844C83.1562 351.469 82.6719 352.016 82.0781 352.484C81.4844 352.953 80.7812 353.188 79.9688 353.188C79.9688 353.156 79.9062 352.906 79.7812 352.438C79.6562 352 79.5469 351.531 79.4531 351.031C79.3281 350.562 79.25 350.312 79.2188 350.281C79.4062 349.906 79.5469 349.531 79.6406 349.156C79.7344 348.812 80 348.469 80.4375 348.125C80.5625 347.719 80.9219 347.047 81.5156 346.109C82.1094 345.141 82.7969 344.109 83.5781 343.016C84.3594 341.891 85.0938 340.859 85.7812 339.922C86.4375 338.984 86.875 338.344 87.0938 338C87.5 337.594 88.0938 336.891 88.875 335.891C89.625 334.891 90.375 333.891 91.125 332.891C91.9062 331.859 92.4688 331.125 92.8125 330.688C93.0938 329.844 93.6719 328.797 94.5469 327.547C95.4531 326.266 96.4062 324.969 97.4062 323.656C98.4375 322.312 99.2812 321.156 99.9375 320.188C100.25 319.688 100.516 319.25 100.734 318.875C100.953 318.5 101.188 318.094 101.438 317.656C101.688 317.406 101.906 317.125 102.094 316.812C102.219 316.344 102.156 315.984 101.906 315.734C101.688 315.484 101.594 315.156 101.625 314.75C102.188 313.688 102.734 313.016 103.266 312.734C103.828 312.422 104.375 311.906 104.906 311.188C105.281 310.938 105.578 310.75 105.797 310.625C106.109 310.469 106.406 310.25 106.688 309.969C107.125 309.531 107.766 309.422 108.609 309.641C109.484 309.828 110 310.094 110.156 310.438C110.188 310.625 110.188 310.875 110.156 311.188C110.125 311.344 110.094 311.5 110.062 311.656C110.031 311.812 110 311.969 109.969 312.125C109.906 312.406 109.844 312.672 109.781 312.922C109.719 313.172 109.656 313.422 109.594 313.672C109.531 313.891 109.469 314.141 109.406 314.422C109.344 314.672 109.281 314.938 109.219 315.219C109.094 315.906 108.984 316.562 108.891 317.188C108.797 317.812 109 318.406 109.5 318.969C109.438 319.281 109.453 319.656 109.547 320.094C109.641 320.531 109.75 320.938 109.875 321.312C110 323.312 110.359 325.297 110.953 327.266C111.547 329.234 112.188 331.031 112.875 332.656C112.875 332.969 112.922 333.281 113.016 333.594C113.109 333.906 113.219 334.219 113.344 334.531C113.531 336.531 113.344 338.516 112.781 340.484C112.5 341.453 112.219 342.422 111.938 343.391C111.688 344.359 111.438 345.312 111.188 346.25C110.812 346.875 110.5 347.594 110.25 348.406C110.031 349.125 109.719 349.719 109.312 350.188C109 350.688 108.719 351.25 108.469 351.875C108.219 352.5 107.719 353 106.969 353.375C106.562 353.5 106.141 353.5 105.703 353.375C105.297 353.25 104.906 353.25 104.531 353.375C104.25 353.406 103.969 353.484 103.688 353.609C103.469 353.703 103.219 353.75 102.938 353.75C102.125 353.906 101.453 353.828 100.922 353.516C100.453 353.266 99.8125 353.062 99 352.906C99 352.719 98.9062 352.578 98.7188 352.484C98.5312 352.391 98.375 352.281 98.25 352.156C98.0312 351.219 97.7812 350.5 97.5 350C97.2812 349.562 97.0938 349.094 96.9375 348.594C96.75 347.875 96.6562 347.203 96.6562 346.578C96.6562 345.891 96.5 345.219 96.1875 344.562C95.9375 344 95.8281 343.656 95.8594 343.531C95.8906 343.406 95.9062 343.219 95.9062 342.969C95.9062 342.156 95.8594 341.266 95.7656 340.297C95.6719 339.297 96.0625 338.5 96.9375 337.906C97.2812 337.656 97.5156 337.328 97.6406 336.922C97.7656 336.578 98.0312 336.219 98.4375 335.844C98.5625 335.719 98.7656 335.656 99.0469 335.656C99.2656 335.656 99.4688 335.688 99.6562 335.75ZM120.281 329.281C120.688 329.062 121.188 328.594 121.781 327.875C122.375 327.125 122.953 326.406 123.516 325.719C124.078 325 124.5 324.594 124.781 324.5C124.969 324.188 125.141 323.922 125.297 323.703C125.453 323.484 125.688 323.281 126 323.094C126.5 322.188 127.156 321.422 127.969 320.797C128.812 320.141 129.594 319.438 130.312 318.688C130.906 318.438 131.5 318.156 132.094 317.844C132.719 317.531 133.328 317.172 133.922 316.766C135.141 315.953 136.5 315.531 138 315.5C138.688 315.812 139.359 315.906 140.016 315.781C140.641 315.656 141.25 315.812 141.844 316.25C142.188 316.844 142.469 317.203 142.688 317.328C142.906 317.453 143.094 317.625 143.25 317.844C143.5 318.625 143.688 319.141 143.812 319.391C143.969 319.641 144.062 319.906 144.094 320.188C144.125 320.656 144.156 321.062 144.188 321.406C144.219 321.719 144.25 321.984 144.281 322.203C144.312 322.609 144.312 323 144.281 323.375C144.094 324.969 143.781 326.562 143.344 328.156C143.281 328.344 143.219 328.531 143.156 328.719C143.094 328.906 143.031 329.109 142.969 329.328C142.844 329.734 142.688 330.094 142.5 330.406C142.031 331 141.703 331.484 141.516 331.859C141.234 332.359 141.031 332.688 140.906 332.844C140.531 333.219 140.172 333.562 139.828 333.875C139.516 334.188 139.219 334.469 138.938 334.719C138.656 334.875 138.375 335.047 138.094 335.234C137.812 335.391 137.531 335.562 137.25 335.75C136.719 336.094 136.094 336.344 135.375 336.5L134.531 337.016C134.25 337.203 133.938 337.312 133.594 337.344C133.031 337.75 132.406 338.078 131.719 338.328C131.406 338.453 131.078 338.578 130.734 338.703C130.422 338.828 130.094 338.969 129.75 339.125C129.281 339.312 128.875 339.531 128.531 339.781C128.188 340.031 127.75 340.281 127.219 340.531C126.938 340.625 126.484 340.734 125.859 340.859C125.266 340.953 124.844 341.062 124.594 341.188C124.906 341.812 125.031 342.594 124.969 343.531C124.938 344.406 125.094 345.188 125.438 345.875C126.25 346.062 127.141 346.203 128.109 346.297C129.078 346.391 130 346.375 130.875 346.25C131.031 346.219 131.188 346.172 131.344 346.109C131.531 346.047 131.719 345.984 131.906 345.922C132.094 345.859 132.281 345.797 132.469 345.734C132.656 345.672 132.844 345.625 133.031 345.594C133.719 345.469 134.391 345.312 135.047 345.125C135.703 344.938 136.281 344.688 136.781 344.375C138.594 343.75 140.344 342.906 142.031 341.844C143.719 340.781 145.188 339.625 146.438 338.375C147.188 337.875 148.016 337.188 148.922 336.312C149.828 335.438 150.531 334.625 151.031 333.875C151.969 332.875 152.797 332.094 153.516 331.531C154.234 330.969 154.906 330.719 155.531 330.781C156.031 330.781 156.516 331.078 156.984 331.672C157.453 332.266 157.406 332.906 156.844 333.594C156.25 333.969 155.594 334.531 154.875 335.281C154.188 336.031 153.469 336.562 152.719 336.875C152.188 337.219 151.484 337.906 150.609 338.938C149.766 339.906 149.062 340.656 148.5 341.188C148.375 341.312 148.234 341.453 148.078 341.609C147.922 341.766 147.734 341.922 147.516 342.078C147.109 342.391 146.781 342.719 146.531 343.062C145.562 343.875 144.625 344.562 143.719 345.125C143.375 345 143.094 345.062 142.875 345.312C142.594 345.656 142.344 345.906 142.125 346.062C142.031 346.125 141.938 346.188 141.844 346.25C141.75 346.312 141.641 346.375 141.516 346.438C141.391 346.5 141.281 346.562 141.188 346.625C141.094 346.688 141 346.75 140.906 346.812C140.406 347.25 139.859 347.688 139.266 348.125C138.672 348.562 138.062 348.938 137.438 349.25C136.812 349.625 136.188 349.969 135.562 350.281C134.938 350.625 134.312 350.922 133.688 351.172C133.062 351.422 132.438 351.719 131.812 352.062C131.219 352.406 130.625 352.781 130.031 353.188L129 353.328C128.844 353.359 128.688 353.375 128.531 353.375C128.375 353.406 128.219 353.438 128.062 353.469C127.719 353.594 127.391 353.656 127.078 353.656C126.766 353.656 126.375 353.594 125.906 353.469C123.844 352.906 122.156 351.906 120.844 350.469C120.656 350.281 120.453 350.109 120.234 349.953C120.047 349.766 119.844 349.594 119.625 349.438C119.125 349.062 118.781 348.719 118.594 348.406C118.312 347.938 118.031 347.203 117.75 346.203C117.438 345.203 117.172 344.188 116.953 343.156C116.734 342.094 116.625 341.281 116.625 340.719C116.812 340.344 117.016 339.703 117.234 338.797C117.453 337.859 117.641 336.938 117.797 336.031C117.953 335.094 118.031 334.438 118.031 334.062C118.156 333.938 118.406 333.531 118.781 332.844C119.125 332.125 119.453 331.406 119.766 330.688C120.109 329.938 120.281 329.469 120.281 329.281ZM135.375 323.281C134.938 323.844 134.5 324.375 134.062 324.875C133.625 325.375 133.125 325.844 132.562 326.281C132.188 326.969 131.75 327.594 131.25 328.156C130.75 328.719 130.25 329.25 129.75 329.75C129.5 330.25 129.219 330.641 128.906 330.922C128.594 331.203 128.25 331.5 127.875 331.812C127.469 332.5 126.969 333.156 126.375 333.781C125.781 334.406 125.656 335.125 126 335.938C126.688 336.062 127.375 335.969 128.062 335.656C128.75 335.344 129.344 335.062 129.844 334.812C130.094 334.656 130.344 334.516 130.594 334.391C130.875 334.266 131.141 334.141 131.391 334.016C131.641 333.891 131.891 333.766 132.141 333.641C132.391 333.516 132.625 333.375 132.844 333.219L135.281 330.781C135.656 330.438 136.031 330.031 136.406 329.562C136.562 329.344 136.719 329.125 136.875 328.906C137.062 328.656 137.25 328.406 137.438 328.156C137.594 327.469 137.844 326.828 138.188 326.234C138.562 325.609 138.719 324.969 138.656 324.312C138.625 324.031 138.516 323.703 138.328 323.328C138.141 322.953 138.031 322.656 138 322.438C137.344 322.438 136.859 322.547 136.547 322.766C136.391 322.891 136.203 323 135.984 323.094C135.797 323.156 135.594 323.219 135.375 323.281ZM156.938 338.094C157.25 338.062 157.5 337.922 157.688 337.672C157.812 337.516 158.031 337.312 158.344 337.062C158.438 337 158.531 336.938 158.625 336.875C158.719 336.812 158.828 336.75 158.953 336.688C159.078 336.625 159.188 336.562 159.281 336.5C159.375 336.438 159.469 336.375 159.562 336.312C160.375 335.719 161.078 335.094 161.672 334.438C162.266 333.812 162.938 333.219 163.688 332.656C164.094 332.188 164.5 331.75 164.906 331.344C165.344 330.906 165.766 330.484 166.172 330.078C166.953 329.328 167.719 328.438 168.469 327.406C169.469 326.656 170.406 325.844 171.281 324.969C171.875 324.594 172.359 324.234 172.734 323.891C173.109 323.547 173.625 323.188 174.281 322.812C174.594 322.438 174.938 322.031 175.312 321.594C175.688 321.156 176.125 320.781 176.625 320.469C177.156 319.938 177.703 319.562 178.266 319.344C178.828 319.125 179.375 318.75 179.906 318.219C180.844 317.719 181.688 317.641 182.438 317.984C183.188 318.328 183.781 318.75 184.219 319.25C184.438 319.812 184.812 320.406 185.344 321.031C185.406 321.125 185.469 321.219 185.531 321.312C185.594 321.406 185.656 321.484 185.719 321.547C185.844 321.672 185.906 321.906 185.906 322.25C185.906 322.969 185.812 323.688 185.625 324.406C185.531 324.75 185.438 325.094 185.344 325.438C185.281 325.781 185.219 326.125 185.156 326.469C185.094 326.906 185.047 327.344 185.016 327.781C184.984 328.188 184.953 328.609 184.922 329.047C184.891 329.859 184.75 330.719 184.5 331.625C184.844 332.125 185.141 332.656 185.391 333.219C185.641 333.812 185.938 334.281 186.281 334.625C186.5 334.594 186.781 334.344 187.125 333.875C187.281 333.75 187.438 333.641 187.594 333.547C187.781 333.422 187.984 333.297 188.203 333.172C188.641 332.922 189 332.656 189.281 332.375C189.531 332.125 189.766 331.891 189.984 331.672C190.203 331.453 190.422 331.25 190.641 331.062C191.109 330.656 191.531 330.219 191.906 329.75C192.125 329.531 192.344 329.328 192.562 329.141C192.781 328.922 193 328.719 193.219 328.531C193.438 328.344 193.656 328.156 193.875 327.969C194.125 327.75 194.375 327.531 194.625 327.312C194.875 327.062 195.109 326.812 195.328 326.562C195.547 326.281 195.766 326.016 195.984 325.766C196.203 325.516 196.422 325.266 196.641 325.016C196.859 324.734 197.094 324.469 197.344 324.219C197.562 323.938 197.766 323.766 197.953 323.703C198.172 323.609 198.344 323.406 198.469 323.094C198.938 322.875 199.359 322.531 199.734 322.062C200.078 321.625 200.562 321.312 201.188 321.125C201.812 321.062 202.219 321.062 202.406 321.125C202.594 321.188 202.875 321.406 203.25 321.781C203.562 322 203.797 322.312 203.953 322.719C204.109 323.125 204.344 323.438 204.656 323.656C205.219 324.781 205.656 325.469 205.969 325.719C206.188 326.219 206.234 326.719 206.109 327.219L205.688 328.719C205.656 329.094 205.625 329.406 205.594 329.656C205.562 329.875 205.531 330.047 205.5 330.172C205.469 330.297 205.438 330.422 205.406 330.547C205.375 330.672 205.344 330.812 205.312 330.969C204.938 333.156 204.375 335.281 203.625 337.344C203.656 337.781 203.781 338.234 204 338.703C204.188 339.078 204.25 339.625 204.188 340.344C204.562 340.406 204.922 340.406 205.266 340.344C205.609 340.281 205.906 340.219 206.156 340.156C207.469 339.625 208.719 338.938 209.906 338.094C210.719 337.469 211.562 336.859 212.438 336.266C213.344 335.641 214.188 335.031 214.969 334.438C215.25 334.219 215.5 333.984 215.719 333.734C215.938 333.484 216.188 333.25 216.469 333.031C217.094 332.531 217.703 332.125 218.297 331.812C218.891 331.5 219.5 331.188 220.125 330.875C220.438 330.688 220.688 330.5 220.875 330.312C221.062 330.125 221.281 329.906 221.531 329.656C221.844 329.344 222.281 329.016 222.844 328.672C223.406 328.328 223.938 328.031 224.438 327.781C225.312 327.75 225.766 327.891 225.797 328.203L225.938 329.094C225.125 329.656 224.359 330.234 223.641 330.828C222.922 331.422 222.188 332.031 221.438 332.656C221.25 332.781 221.078 332.891 220.922 332.984C220.766 333.078 220.531 333.188 220.219 333.312C219.969 333.5 219.797 333.672 219.703 333.828C219.609 333.984 219.406 334.156 219.094 334.344C218.906 334.5 218.719 334.656 218.531 334.812C218.344 334.938 218.156 335.078 217.969 335.234C217.594 335.516 217.25 335.812 216.938 336.125C216.5 336.438 216.094 336.75 215.719 337.062C215.344 337.375 215 337.688 214.688 338C214.344 338.344 214.062 338.688 213.844 339.031C213.656 339.344 213.344 339.688 212.906 340.062C212.594 340.188 212.328 340.344 212.109 340.531L211.406 341.094C211.281 341.469 211.188 341.797 211.125 342.078C211.094 342.328 210.906 342.625 210.562 342.969C210.062 343.406 209.766 343.703 209.672 343.859C209.578 344.016 209.438 344.188 209.25 344.375C209.125 344.469 208.906 344.578 208.594 344.703C208.469 344.734 208.344 344.781 208.219 344.844C208.094 344.906 207.969 344.969 207.844 345.031C207.562 345.188 207.281 345.406 207 345.688C206.875 345.812 206.734 345.938 206.578 346.062C206.453 346.188 206.312 346.312 206.156 346.438C205.906 346.594 205.672 346.734 205.453 346.859C205.234 346.984 205.047 347.109 204.891 347.234C204.641 347.422 204.188 347.594 203.531 347.75C202.875 348.188 202.406 348.391 202.125 348.359C201.938 348.328 201.625 348.344 201.188 348.406C201.031 348.469 200.891 348.406 200.766 348.219C200.641 348.031 200.469 347.938 200.25 347.938C199.844 347.562 199.531 347.406 199.312 347.469C199.062 347.531 198.844 347.5 198.656 347.375C198.031 346.656 197.719 346.125 197.719 345.781C197.719 345.594 197.703 345.406 197.672 345.219C197.672 345 197.656 344.781 197.625 344.562C197.5 343.625 197.375 342.672 197.25 341.703C197.125 340.734 197.031 339.719 196.969 338.656C196.969 338.219 197.016 337.812 197.109 337.438C197.234 336.969 197.312 336.562 197.344 336.219C197.344 336.062 197.312 335.828 197.25 335.516C197.188 335.203 197.156 335 197.156 334.906C197.219 334.375 197.312 333.906 197.438 333.5C197.562 333.125 197.594 332.688 197.531 332.188C197.125 332.656 196.766 333.062 196.453 333.406C196.141 333.719 195.875 333.984 195.656 334.203C195.438 334.422 195.219 334.641 195 334.859C194.812 335.078 194.625 335.312 194.438 335.562C193.469 336.125 192.656 336.672 192 337.203C191.312 337.766 190.469 338.219 189.469 338.562C189.031 339 188.594 339.422 188.156 339.828C187.75 340.203 187.344 340.562 186.938 340.906C186.531 341.25 186.109 341.625 185.672 342.031C185.266 342.406 184.844 342.812 184.406 343.25C183.375 344.594 182.25 345.594 181.031 346.25C180.594 346.375 180.25 346.453 180 346.484C179.75 346.516 179.5 346.438 179.25 346.25C177.938 345.5 177.156 344.531 176.906 343.344C176.656 342.156 176.688 340.844 177 339.406C176.719 338.812 176.75 337.969 177.094 336.875C177.469 335.75 177.531 334.938 177.281 334.438C177.375 333.969 177.484 333.5 177.609 333.031C177.734 332.531 177.875 332.031 178.031 331.531C178.188 331.031 178.312 330.547 178.406 330.078C178.531 329.578 178.625 329.094 178.688 328.625C179 328.188 179.047 327.844 178.828 327.594C178.609 327.344 178.406 327.125 178.219 326.938C177.156 327.562 176.141 328.297 175.172 329.141C174.203 329.984 173.219 330.844 172.219 331.719C171.969 331.938 171.719 332.156 171.469 332.375C171.25 332.562 171.016 332.766 170.766 332.984C170.547 333.203 170.312 333.422 170.062 333.641C169.812 333.828 169.562 334.031 169.312 334.25L167.812 335.516C167.281 335.953 166.844 336.406 166.5 336.875C166.094 337.438 165.766 337.812 165.516 338L164.906 338.469C164.625 338.625 164.375 338.812 164.156 339.031C164.031 339.156 163.844 339.312 163.594 339.5C163.406 339.656 163.156 339.797 162.844 339.922L162 340.25C161.625 340.5 161.234 340.828 160.828 341.234C160.422 341.641 160.062 342 159.75 342.312C159.5 342.562 159.219 342.812 158.906 343.062C158.562 343.344 158.312 343.594 158.156 343.812C157.781 344.344 157.328 344.906 156.797 345.5C156.578 345.75 156.344 346.016 156.094 346.297C155.875 346.547 155.656 346.812 155.438 347.094C155.406 347.375 155.234 347.672 154.922 347.984L154.031 348.875C153.906 349 153.781 349.141 153.656 349.297C153.531 349.422 153.391 349.562 153.234 349.719C152.984 350 152.688 350.219 152.344 350.375L151.688 350.516C151.344 350.578 151.094 350.656 150.938 350.75C150.75 350.812 150.562 350.875 150.375 350.938C150.156 351.031 149.938 351.125 149.719 351.219C149.312 351.406 148.844 351.469 148.312 351.406L147.188 351.266C146.906 351.234 146.594 351.094 146.25 350.844C146.25 350.344 146.094 350 145.781 349.812C145.938 348.969 146.141 348.219 146.391 347.562C146.641 346.875 146.844 346.156 147 345.406C147.469 344.75 147.828 344.047 148.078 343.297C148.328 342.547 148.656 341.781 149.062 341C149.344 340.219 149.672 339.406 150.047 338.562L151.031 336.312C151.156 335.938 151.266 335.578 151.359 335.234C151.484 334.891 151.594 334.562 151.688 334.25C151.875 333.594 152.125 333.031 152.438 332.562C152.844 331.906 153.062 331.438 153.094 331.156C153.781 330.344 154.125 329.5 154.125 328.625C154.469 328.25 154.719 327.719 154.875 327.031C155.031 326.375 155.219 325.781 155.438 325.25C155.562 325 155.672 324.781 155.766 324.594C155.859 324.406 155.938 324.156 156 323.844C156.062 323.438 156.078 323.141 156.047 322.953C156.016 322.703 156.094 322.406 156.281 322.062C156.406 321.906 156.531 321.766 156.656 321.641C156.781 321.516 156.906 321.391 157.031 321.266C157.156 321.141 157.281 321.016 157.406 320.891C157.531 320.766 157.656 320.625 157.781 320.469C158.062 320.438 158.281 320.281 158.438 320C158.594 319.75 158.781 319.562 159 319.438C159.688 319.219 160.078 319.062 160.172 318.969C160.297 318.844 160.375 318.781 160.406 318.781L161.812 318.078C161.906 318.016 162 317.969 162.094 317.938C162.219 317.875 162.344 317.812 162.469 317.75C162.594 317.688 162.703 317.641 162.797 317.609C162.891 317.578 162.969 317.547 163.031 317.516C163.094 317.484 163.172 317.453 163.266 317.422C163.359 317.391 163.469 317.344 163.594 317.281C163.75 317.125 164 316.938 164.344 316.719C164.688 316.5 164.938 316.312 165.094 316.156C165.719 316.406 166.25 316.797 166.688 317.328C167.125 317.859 167.25 318.562 167.062 319.438C167 319.75 166.906 320.047 166.781 320.328C166.656 320.609 166.531 320.875 166.406 321.125C166.312 321.344 166.234 321.641 166.172 322.016C166.109 322.391 166.031 322.656 165.938 322.812C165.5 323.594 165.219 324.172 165.094 324.547C164.938 325.016 164.781 325.406 164.625 325.719C164.375 326.125 164.156 326.531 163.969 326.938C163.781 327.438 163.609 327.844 163.453 328.156C163.297 328.469 163.062 328.781 162.75 329.094C162.5 329.406 162.312 329.625 162.188 329.75C161.969 329.969 161.781 330.219 161.625 330.5C161.406 330.781 161.188 331.078 160.969 331.391C160.75 331.703 160.531 332.031 160.312 332.375C159.906 333.031 159.438 333.656 158.906 334.25L157.922 336.125C157.609 336.719 157.281 337.375 156.938 338.094ZM237 303.031L237.938 303.312C238.062 303.469 238.125 303.656 238.125 303.875C238.125 304.031 238.219 304.188 238.406 304.344C238.281 304.906 238.172 305.484 238.078 306.078C237.984 306.672 237.938 307.25 237.938 307.812C237.938 308.031 238.016 308.25 238.172 308.469C238.328 308.688 238.406 308.875 238.406 309.031C238.094 309.75 237.859 310.188 237.703 310.344C237.547 310.5 237.469 310.656 237.469 310.812C237.156 310.938 236.922 311.125 236.766 311.375C236.609 311.625 236.344 311.75 235.969 311.75C235.844 311.938 235.703 312.078 235.547 312.172C235.359 312.297 235.25 312.469 235.219 312.688C234.188 313.125 233.062 313.094 231.844 312.594C231.5 312 231.062 311.594 230.531 311.375C229.719 310.188 229.688 308.781 230.438 307.156C230.562 306.844 230.703 306.516 230.859 306.172C231.016 305.828 231.156 305.594 231.281 305.469C231.938 305 232.438 304.688 232.781 304.531C232.906 304.469 233.031 304.406 233.156 304.344C233.312 304.25 233.453 304.156 233.578 304.062C233.797 303.906 234.125 303.75 234.562 303.594C234.75 303.531 234.922 303.5 235.078 303.5C235.328 303.5 235.562 303.438 235.781 303.312C235.906 303.281 236.016 303.25 236.109 303.219C236.234 303.188 236.344 303.156 236.438 303.125C236.688 303.062 236.875 303.031 237 303.031ZM222.938 344.562L223.406 344.75C223.969 344.5 224.656 344.406 225.469 344.469C226.312 344.531 226.969 344.406 227.438 344.094C227.75 343.844 227.969 343.656 228.094 343.531C228.281 343.344 228.5 343.281 228.75 343.344C229.75 342.969 230.594 342.594 231.281 342.219C232 341.844 232.75 341.562 233.531 341.375C234.031 341.188 234.469 340.906 234.844 340.531C236.125 340.125 237.203 339.547 238.078 338.797C238.984 338.047 239.969 337.25 241.031 336.406C241.906 335.906 242.641 335.469 243.234 335.094C243.828 334.719 244.469 334.25 245.156 333.688C245.312 333.344 245.484 333.109 245.672 332.984C245.828 332.891 246 332.688 246.188 332.375C247.312 332.375 247.938 332.812 248.062 333.688C247.75 334.375 247.328 334.938 246.797 335.375C246.234 335.844 245.75 336.344 245.344 336.875C244.844 337.188 244.438 337.469 244.125 337.719C243.812 337.969 243.5 338.344 243.188 338.844C243.156 338.844 242.969 338.984 242.625 339.266C242.312 339.547 242.125 339.688 242.062 339.688C241.562 340.281 241.188 340.641 240.938 340.766C240.688 340.891 240.25 341.219 239.625 341.75C239.219 342.438 238.656 343 237.938 343.438C236.594 344.719 235.172 345.797 233.672 346.672C232.891 347.109 232.156 347.562 231.469 348.031C230.781 348.469 230.125 348.906 229.5 349.344C229.188 349.531 228.969 349.703 228.844 349.859C228.719 350.016 228.5 350.219 228.188 350.469C227.875 350.719 227.391 350.969 226.734 351.219C226.078 351.469 225.5 351.688 225 351.875C224.594 352.125 224.25 352.312 223.969 352.438C222.562 352.5 221.5 352.281 220.781 351.781C219.969 351.344 219.344 351 218.906 350.75C218.469 350.5 218.094 350.094 217.781 349.531C217.062 349.188 216.641 348.609 216.516 347.797C216.453 347.359 216.375 346.938 216.281 346.531C216.188 346.125 216.094 345.719 216 345.312C215.938 345 215.875 344.641 215.812 344.234C215.75 343.828 215.75 343.406 215.812 342.969C215.969 342.25 216.062 341.516 216.094 340.766C216.125 340.078 216.281 339.406 216.562 338.75C216.844 338.125 217.016 337.438 217.078 336.688C217.141 335.938 217.312 335.25 217.594 334.625C218 334 218.172 333.656 218.109 333.594C218.078 333.562 218.094 333.469 218.156 333.312L218.578 332.75C218.672 332.625 218.812 332.406 219 332.094L219.562 330.688C219.844 330.156 220.125 329.719 220.406 329.375C220.688 329 220.938 328.469 221.156 327.781C221.312 327.344 221.484 327 221.672 326.75C221.797 326.594 221.906 326.438 222 326.281C222.125 326.094 222.25 325.906 222.375 325.719C222.531 325.406 222.688 325.016 222.844 324.547C222.906 324.328 222.969 324.125 223.031 323.938C223.125 323.719 223.219 323.5 223.312 323.281C223.5 322.781 223.734 322.281 224.016 321.781C224.297 321.281 224.594 320.781 224.906 320.281C225.156 319.781 225.375 319.406 225.562 319.156C225.75 318.906 226.125 318.75 226.688 318.688C226.969 318.625 227.25 318.641 227.531 318.734C227.875 318.828 228.188 318.812 228.469 318.688C229.281 318.312 229.844 318.125 230.156 318.125C230.469 318.125 230.688 318.031 230.812 317.844C231.469 317.875 231.969 318.094 232.312 318.5C232.656 318.875 233.031 319.25 233.438 319.625C233.062 321.438 232.641 322.828 232.172 323.797C231.703 324.766 231.188 325.781 230.625 326.844C230.312 327.344 230 327.906 229.688 328.531C229.375 329.156 229.094 329.719 228.844 330.219C228.531 330.906 228.203 331.516 227.859 332.047C227.453 332.672 227.156 333.281 226.969 333.875L226.547 334.766C226.359 335.141 226.219 335.438 226.125 335.656C226.062 335.875 225.984 336.094 225.891 336.312C225.828 336.5 225.734 336.672 225.609 336.828C225.484 336.984 225.375 337.156 225.281 337.344C225.188 337.5 225.094 337.656 225 337.812C224.812 338.188 224.625 338.562 224.438 338.938C224.25 339.312 224.094 339.719 223.969 340.156C223.656 340.844 223.469 341.297 223.406 341.516C223.375 341.578 223.344 341.656 223.312 341.75C223.281 341.812 223.25 341.875 223.219 341.938C223.094 342.625 222.906 343.188 222.656 343.625C222.406 344.062 222.5 344.375 222.938 344.562ZM248.812 338.469C249.312 338.156 249.719 337.75 250.031 337.25C250.188 337 250.359 336.75 250.547 336.5C250.734 336.25 250.938 336 251.156 335.75C251.969 334.812 252.844 334.031 253.781 333.406C254.219 332.75 254.766 332.266 255.422 331.953C256.078 331.609 256.594 331.094 256.969 330.406C257.062 330.281 257.172 330.094 257.297 329.844C257.422 329.594 257.531 329.406 257.625 329.281C258.812 327.625 260.094 326.25 261.469 325.156C261.656 325 261.844 324.844 262.031 324.688C262.219 324.531 262.391 324.375 262.547 324.219C262.797 323.969 263.219 323.656 263.812 323.281C264.094 323.125 264.375 322.953 264.656 322.766C264.938 322.547 265.203 322.312 265.453 322.062C265.953 321.562 266.531 321.188 267.188 320.938C267.594 320.75 268 320.609 268.406 320.516C268.594 320.453 268.781 320.406 268.969 320.375C269.188 320.312 269.406 320.25 269.625 320.188C270.062 320.062 270.453 319.953 270.797 319.859C271.141 319.766 271.531 319.781 271.969 319.906C272.969 320.312 273.719 321.156 274.219 322.438C274.406 322.906 274.297 323.891 273.891 325.391C273.516 326.891 273.062 328.453 272.531 330.078C272 331.672 271.625 332.906 271.406 333.781C271.281 334.25 271.25 334.516 271.312 334.578C271.375 334.641 271.406 334.719 271.406 334.812C271.281 335.125 271.188 335.406 271.125 335.656C271.062 335.906 271 336.188 270.938 336.5C270.812 337 270.719 337.672 270.656 338.516C270.594 339.359 270.625 340.031 270.75 340.531C271.375 340.5 271.734 340.438 271.828 340.344C271.891 340.281 271.969 340.25 272.062 340.25C272.312 340.188 272.516 340.172 272.672 340.203C272.828 340.234 273.031 340.219 273.281 340.156C274.562 339.812 275.719 339.125 276.75 338.094C277.312 337.844 277.844 337.594 278.344 337.344C278.875 337.094 279.375 336.844 279.844 336.594C280.719 335.969 281.422 335.516 281.953 335.234C282.484 334.953 283.281 334.562 284.344 334.062C284.75 333.594 285.297 333.203 285.984 332.891C286.609 332.609 287.219 332.219 287.812 331.719C288 331.531 288.156 331.359 288.281 331.203C288.469 330.953 288.656 330.906 288.844 331.062C289.156 331.375 289.359 331.703 289.453 332.047C289.547 332.391 289.562 332.625 289.5 332.75C289.031 333.219 288.766 333.594 288.703 333.875C288.641 334.156 288.562 334.344 288.469 334.438C288.156 334.75 287.688 335.031 287.062 335.281C286.531 335.5 286.203 335.703 286.078 335.891C285.953 336.078 285.844 336.219 285.75 336.312C285.562 336.5 285.391 336.641 285.234 336.734C285.078 336.828 284.906 336.969 284.719 337.156C284.594 337.344 284.422 337.453 284.203 337.484L283.594 337.625C283.219 337.938 282.906 338.219 282.656 338.469C282.406 338.719 282.125 339 281.812 339.312C281.344 339.781 281.031 340.141 280.875 340.391C280.75 340.609 280.406 340.906 279.844 341.281L277.969 342.406C277.094 342.844 276.219 343.375 275.344 344C274.469 344.625 273.594 345.25 272.719 345.875C272.156 346.219 271.516 346.547 270.797 346.859C270.141 347.141 269.531 347.469 268.969 347.844C268.688 347.844 268.516 347.828 268.453 347.797C268.359 347.734 268.188 347.781 267.938 347.938C267.625 347.781 267.312 347.766 267 347.891C266.656 348.047 266.344 348.062 266.062 347.938C265.75 347.688 265.484 347.484 265.266 347.328C265.078 347.172 264.922 347.062 264.797 347C264.609 346.875 264.438 346.719 264.281 346.531C264.156 346.219 264.109 345.875 264.141 345.5C264.172 345.125 264.094 344.812 263.906 344.562C263.906 343.188 263.953 341.875 264.047 340.625C264.141 339.375 264.344 338.062 264.656 336.688C264.719 336.25 264.875 335.5 265.125 334.438C265.375 333.344 265.578 332.297 265.734 331.297C265.891 330.297 265.844 329.719 265.594 329.562C264.906 329.938 264.203 330.5 263.484 331.25C263.141 331.625 262.797 331.969 262.453 332.281C262.109 332.594 261.781 332.875 261.469 333.125L260.016 334.156C259.797 334.312 259.562 334.484 259.312 334.672C259.062 334.828 258.812 335 258.562 335.188C258.125 335.5 257.75 335.812 257.438 336.125C257.125 336.438 256.781 336.812 256.406 337.25C256.188 337.469 255.969 337.688 255.75 337.906C255.562 338.094 255.375 338.297 255.188 338.516C254.812 338.922 254.375 339.312 253.875 339.688C253.562 340 253.328 340.203 253.172 340.297C253.016 340.391 252.812 340.562 252.562 340.812L251.672 341.703C251.391 341.984 251.031 342.219 250.594 342.406C249.594 343.75 248.469 345.047 247.219 346.297C246 347.547 245.031 348.812 244.312 350.094C243.562 350.719 242.766 351.266 241.922 351.734C241.078 352.203 240.062 352.25 238.875 351.875C238.25 351.5 237.844 351.188 237.656 350.938C237.469 350.719 237.25 350.531 237 350.375C237.062 349.688 237.125 349.031 237.188 348.406C237.25 347.781 237.438 347.125 237.75 346.438L238.312 345.5C238.625 344.969 238.828 344.344 238.922 343.625C239.016 342.875 239.219 342.219 239.531 341.656C239.906 341.031 240.141 340.516 240.234 340.109C240.328 339.734 240.469 339.375 240.656 339.031C240.812 338.656 240.984 338.359 241.172 338.141C241.359 337.922 241.531 337.625 241.688 337.25C241.844 336.906 242.062 336.547 242.344 336.172C242.625 335.797 242.844 335.438 243 335.094C243.375 333.75 243.875 332.375 244.5 330.969C244.625 330.531 244.75 330.109 244.875 329.703C245 329.297 245.156 328.906 245.344 328.531C245.5 328.188 245.656 327.844 245.812 327.5C245.969 327.156 246.125 326.828 246.281 326.516C246.438 326.172 246.594 325.844 246.75 325.531C246.906 325.188 247.062 324.844 247.219 324.5C247.406 324.125 247.578 323.797 247.734 323.516C247.891 323.234 248.094 322.938 248.344 322.625C248.438 322.469 248.531 322.312 248.625 322.156C248.719 322 248.797 321.844 248.859 321.688C248.922 321.531 249 321.375 249.094 321.219C249.188 321.062 249.281 320.906 249.375 320.75C249.469 320.594 249.562 320.438 249.656 320.281C249.75 320.094 249.828 319.891 249.891 319.672C250.016 319.266 250.25 318.875 250.594 318.5C250.812 318.25 251 318.016 251.156 317.797C251.344 317.547 251.5 317.312 251.625 317.094C251.844 316.688 252.25 316.406 252.844 316.25C253.375 316.5 253.922 316.406 254.484 315.969C255.078 315.5 255.562 315.531 255.938 316.062C256.812 316.625 257.406 317.062 257.719 317.375C258.094 317.719 258.344 318.062 258.469 318.406C258.781 318.969 258.812 319.547 258.562 320.141C258.312 320.734 257.875 321.25 257.25 321.688C257.031 322.656 256.594 323.656 255.938 324.688C255.625 325.156 255.328 325.625 255.047 326.094C254.766 326.531 254.5 326.969 254.25 327.406L253.5 329.281C253.125 330.156 252.734 331.031 252.328 331.906C251.922 332.781 251.469 333.625 250.969 334.438C250.562 335.281 250.25 335.828 250.031 336.078C249.844 336.328 249.672 336.578 249.516 336.828C249.391 337.047 249.156 337.594 248.812 338.469ZM338.344 315.688C339.031 315.312 339.609 314.875 340.078 314.375C340.547 313.875 341.125 313.438 341.812 313.062C342.094 312.656 342.547 312.203 343.172 311.703C343.422 311.484 343.672 311.266 343.922 311.047C344.172 310.828 344.406 310.594 344.625 310.344C345.312 309.969 345.922 309.578 346.453 309.172C346.984 308.766 347.469 308.25 347.906 307.625C348.281 307.312 348.672 307.031 349.078 306.781C349.234 306.688 349.391 306.594 349.547 306.5C349.734 306.375 349.906 306.25 350.062 306.125C350.688 305.562 351.297 304.984 351.891 304.391C352.484 303.766 353.078 303.141 353.672 302.516C354.891 301.172 356.156 299.969 357.469 298.906C357.625 298.719 357.781 298.531 357.938 298.344C358.125 298.156 358.297 297.984 358.453 297.828L359.438 296.844C360.094 296.312 360.844 295.625 361.688 294.781C361.969 294.5 362.219 294.172 362.438 293.797C362.688 293.359 362.938 293 363.188 292.719C363.719 292.094 364.188 291.375 364.594 290.562C365.094 289.812 365.578 289.062 366.047 288.312C366.516 287.562 366.906 286.781 367.219 285.969C367.438 285.094 367.641 284.5 367.828 284.188C367.984 283.938 368.125 283.656 368.25 283.344C368.438 282.969 368.578 282.578 368.672 282.172C368.734 281.828 368.906 281.469 369.188 281.094C369.438 280.844 369.781 280.672 370.219 280.578C370.656 280.484 371.031 280.594 371.344 280.906C372.281 280.594 372.938 281 373.312 282.125C373.438 282.375 373.469 282.688 373.406 283.062C373.344 283.5 373.312 283.875 373.312 284.188C373.156 285 373.109 285.812 373.172 286.625C373.203 287.344 373.094 288.125 372.844 288.969C372.719 289.406 372.531 289.906 372.281 290.469C372.062 290.938 371.875 291.281 371.719 291.5C371.562 291.688 371.469 291.891 371.438 292.109C371.406 292.328 371.312 292.531 371.156 292.719C371 292.969 370.797 293.203 370.547 293.422C370.172 293.734 369.906 294 369.75 294.219C368.875 295.094 368.062 295.984 367.312 296.891C366.562 297.797 365.844 298.719 365.156 299.656C364.5 300.438 364.125 300.922 364.031 301.109C363.844 301.422 363.688 301.656 363.562 301.812C363.375 302.125 363.141 302.406 362.859 302.656C362.547 302.938 362.281 303.219 362.062 303.5C361.906 303.656 361.812 303.812 361.781 303.969C361.75 304.125 361.656 304.281 361.5 304.438C361.125 304.844 360.734 305.25 360.328 305.656C359.953 306.062 359.562 306.469 359.156 306.875C358.375 307.656 357.625 308.5 356.906 309.406L356.344 310.344C356.25 310.5 356.141 310.656 356.016 310.812C355.922 310.969 355.812 311.125 355.688 311.281C355.562 311.375 355.344 311.516 355.031 311.703C354.812 311.828 354.531 312.062 354.188 312.406C354.062 312.531 353.906 312.641 353.719 312.734C353.469 312.859 353.281 312.969 353.156 313.062L348.938 315.594C348.656 315.812 348.375 316.031 348.094 316.25C347.812 316.438 347.516 316.625 347.203 316.812C346.891 317 346.594 317.188 346.312 317.375C346.062 317.562 345.812 317.75 345.562 317.938C344.562 318.688 343.828 319.422 343.359 320.141C342.859 320.891 341.969 321.438 340.688 321.781C340.5 322.656 340.547 323.406 340.828 324.031C341.078 324.562 341.281 325.125 341.438 325.719C341.562 326 341.672 326.359 341.766 326.797C341.828 327.016 341.875 327.234 341.906 327.453C341.969 327.641 342.031 327.844 342.094 328.062C342.188 328.344 342.266 328.625 342.328 328.906C342.422 329.188 342.5 329.453 342.562 329.703C342.719 330.328 342.906 330.906 343.125 331.438C343.25 331.656 343.344 331.906 343.406 332.188C343.469 332.469 343.562 332.719 343.688 332.938C343.75 333.188 343.812 333.438 343.875 333.688C343.938 333.906 343.984 334.125 344.016 334.344C344.078 334.562 344.125 334.797 344.156 335.047C344.219 335.266 344.281 335.5 344.344 335.75C344.594 336.781 344.969 337.781 345.469 338.75C345.656 339.438 345.938 340.047 346.312 340.578C346.719 341.141 347.031 341.656 347.25 342.125C347.531 342.281 347.797 342.531 348.047 342.875C348.297 343.188 348.531 343.469 348.75 343.719C349.344 344.281 349.797 344.875 350.109 345.5C350.422 346.094 350.875 346.656 351.469 347.188C351.906 347.25 352.344 347.297 352.781 347.328C353.219 347.359 353.656 347.281 354.094 347.094C354.406 346.906 354.641 346.734 354.797 346.578C354.953 346.422 355.188 346.25 355.5 346.062C355.781 345.781 356.031 345.578 356.25 345.453C356.469 345.328 356.656 345.156 356.812 344.938C358.125 344.219 359.156 343.438 359.906 342.594C360.312 342.156 360.719 341.719 361.125 341.281C361.562 340.812 362 340.344 362.438 339.875C362.656 339.719 362.859 339.562 363.047 339.406C363.266 339.219 363.453 339.047 363.609 338.891C363.766 338.734 363.938 338.578 364.125 338.422C364.312 338.234 364.5 338.062 364.688 337.906C365.562 337.688 366.219 337.469 366.656 337.25C367.062 337.031 367.438 336.906 367.781 336.875C368.219 336.75 368.641 336.672 369.047 336.641C369.453 336.609 369.812 336.688 370.125 336.875C370 337.062 369.969 337.328 370.031 337.672C370.094 338.016 370.062 338.281 369.938 338.469C369.781 338.969 369.609 339.344 369.422 339.594C369.297 339.75 369.172 339.922 369.047 340.109C368.953 340.266 368.844 340.438 368.719 340.625C368.156 341.188 367.625 341.656 367.125 342.031C366.531 342.469 366.031 342.938 365.625 343.438C365.094 343.812 364.547 344.25 363.984 344.75C363.766 344.969 363.531 345.188 363.281 345.406C363.031 345.625 362.781 345.844 362.531 346.062C362.062 346.531 361.547 346.969 360.984 347.375C360.422 347.781 359.906 348.219 359.438 348.688C358.969 349.125 358.5 349.578 358.031 350.047C357.562 350.516 357.109 351 356.672 351.5C355.734 352.531 354.75 353.406 353.719 354.125C352.969 354.938 352.188 355.344 351.375 355.344C351.031 355.188 350.719 355.094 350.438 355.062C350.156 355.031 349.844 354.938 349.5 354.781C348.594 354.094 347.625 353.484 346.594 352.953C345.594 352.422 344.812 351.594 344.25 350.469C343.75 350.094 343.328 349.625 342.984 349.062C342.641 348.5 342.312 347.875 342 347.188L341.391 346.578C341.203 346.359 341.031 346.094 340.875 345.781C340.562 345.594 340.359 345.422 340.266 345.266C340.172 345.109 340 344.906 339.75 344.656C339.188 343.531 338.641 342.234 338.109 340.766C337.578 339.297 337.125 338.031 336.75 336.969C336.719 336.875 336.688 336.781 336.656 336.688C336.625 336.594 336.594 336.5 336.562 336.406C336.531 336.312 336.5 336.203 336.469 336.078C336.438 335.953 336.406 335.812 336.375 335.656C336.25 335.469 336.156 335.297 336.094 335.141C336.031 334.984 335.969 334.812 335.906 334.625C335.719 334.25 335.578 333.828 335.484 333.359C335.453 333.109 335.406 332.875 335.344 332.656C335.281 332.406 335.219 332.156 335.156 331.906C335.031 331.469 334.844 330.969 334.594 330.406C334.469 330.156 334.344 329.906 334.219 329.656C334.125 329.406 334.031 329.156 333.938 328.906C333.75 328.344 333.562 327.781 333.375 327.219C333.188 326.656 332.938 326.125 332.625 325.625C331.75 326.75 331.219 327.719 331.031 328.531C330.844 329.312 330.594 330.031 330.281 330.688C329.812 331.469 329.562 331.953 329.531 332.141C329.5 332.391 329.406 332.688 329.25 333.031C328.938 333.531 328.625 334.047 328.312 334.578C328 335.109 327.719 335.688 327.469 336.312C327.375 336.531 327.266 336.828 327.141 337.203C327.016 337.578 326.906 337.875 326.812 338.094C326.719 338.312 326.641 338.641 326.578 339.078C326.516 339.516 326.438 339.844 326.344 340.062C326.281 340.156 326.219 340.25 326.156 340.344C326.094 340.438 326.031 340.516 325.969 340.578C325.906 340.641 325.844 340.719 325.781 340.812C325.719 340.906 325.656 341 325.594 341.094C325.281 341.594 325.016 342.141 324.797 342.734C324.578 343.328 324.344 343.969 324.094 344.656C323.969 345.5 323.906 346.328 323.906 347.141C323.906 347.953 323.844 348.688 323.719 349.344C323.219 349.812 322.922 350.094 322.828 350.188C322.734 350.312 322.562 350.469 322.312 350.656C322.094 350.781 321.859 350.875 321.609 350.938C321.422 350.969 321.156 351.062 320.812 351.219C320.281 351.938 319.875 352.375 319.594 352.531C319.469 352.594 319.344 352.656 319.219 352.719C319.094 352.812 318.969 352.906 318.844 353C318.594 353.188 318.406 353.344 318.281 353.469C318.156 353.594 317.969 353.75 317.719 353.938C317.031 354.25 316.25 354.375 315.375 354.312C314.5 354.25 313.719 354.062 313.031 353.75C312.875 353.344 312.75 352.938 312.656 352.531C312.906 351.875 313.031 351.344 313.031 350.938C313.344 350.406 313.625 349.875 313.875 349.344C314.125 348.781 314.328 348.219 314.484 347.656C314.797 346.562 315.312 345.562 316.031 344.656C316.156 344.5 316.266 344.359 316.359 344.234C316.484 344.078 316.578 343.938 316.641 343.812C316.703 343.688 316.781 343.562 316.875 343.438C317 343.281 317.125 343.125 317.25 342.969C317.438 342.562 317.641 342.156 317.859 341.75C318.078 341.312 318.312 340.891 318.562 340.484C318.812 340.047 319.031 339.609 319.219 339.172C319.438 338.734 319.625 338.281 319.781 337.812C320.344 337.062 320.766 336.188 321.047 335.188C321.328 334.188 321.656 333.25 322.031 332.375C322.281 331.844 322.516 331.297 322.734 330.734C322.953 330.172 323.172 329.594 323.391 329C323.828 327.75 324.375 326.719 325.031 325.906C325.188 325.562 325.344 325.219 325.5 324.875C325.688 324.5 325.875 324.141 326.062 323.797C326.25 323.453 326.422 323.109 326.578 322.766C326.766 322.391 326.938 322.031 327.094 321.688C327.156 321.469 327.219 321.25 327.281 321.031C327.344 320.812 327.406 320.594 327.469 320.375C327.531 320.156 327.594 319.938 327.656 319.719C327.75 319.5 327.844 319.281 327.938 319.062L328.5 317.938C328.594 317.75 328.688 317.562 328.781 317.375C328.906 317.156 329.031 316.938 329.156 316.719C329.5 316.156 329.797 315.5 330.047 314.75C330.172 314.406 330.297 314.062 330.422 313.719C330.547 313.375 330.688 313.031 330.844 312.688C331.75 310.625 332.656 308.625 333.562 306.688C334.469 304.75 335.375 302.75 336.281 300.688C336.562 299.906 336.844 299.141 337.125 298.391C337.438 297.641 337.75 296.906 338.062 296.188C338.688 294.656 339.25 293.188 339.75 291.781C339.562 291.781 339.375 291.891 339.188 292.109C339.062 292.266 338.906 292.438 338.719 292.625C338.406 292.75 338.125 292.906 337.875 293.094C337.625 293.281 337.344 293.5 337.031 293.75C336.188 294.344 335.281 295.125 334.312 296.094C334 296.344 333.641 296.609 333.234 296.891C332.828 297.172 332.438 297.438 332.062 297.688C330.938 298.281 330 298.594 329.25 298.625C328.812 298.031 328.609 297.703 328.641 297.641C328.672 297.578 328.656 297.469 328.594 297.312C328.406 296.938 328.203 296.766 327.984 296.797C327.766 296.828 327.625 296.625 327.562 296.188C327.5 295.625 327.469 295.188 327.469 294.875C327.469 294.406 327.531 294.031 327.656 293.75C327.781 293.5 327.984 293.234 328.266 292.953C328.547 292.672 328.844 292.406 329.156 292.156C329.406 291.844 329.656 291.562 329.906 291.312C330.188 291.031 330.469 290.781 330.75 290.562C331.781 289.719 332.875 289 334.031 288.406C334.406 288.094 334.859 287.781 335.391 287.469C335.922 287.156 336.406 286.875 336.844 286.625C337.375 286.375 337.906 286.188 338.438 286.062C339.062 285.906 339.531 285.75 339.844 285.594C340.125 285.438 340.484 285.047 340.922 284.422C341.359 283.797 341.688 283.375 341.906 283.156C342.469 282.5 343 282.062 343.5 281.844C343.969 281.625 344.312 281.375 344.531 281.094C344.719 280.875 344.859 280.578 344.953 280.203C345.047 279.859 345.219 279.562 345.469 279.312C345.906 278.812 346.297 278.516 346.641 278.422C346.984 278.328 347.5 278.438 348.188 278.75H349.5C349.875 278.75 350.125 278.812 350.25 278.938C350.625 279.188 351.047 279.594 351.516 280.156C351.984 280.719 352.219 281.344 352.219 282.031C352.219 282.656 352.125 283.281 351.938 283.906C351.844 284.219 351.75 284.531 351.656 284.844C351.594 285.156 351.531 285.469 351.469 285.781C350.719 287.344 349.969 288.938 349.219 290.562C348.469 292.188 347.75 293.812 347.062 295.438C346.812 295.938 346.594 296.438 346.406 296.938C346.219 297.438 346.031 297.938 345.844 298.438C345.719 298.719 345.656 299.031 345.656 299.375C345.656 299.688 345.5 299.938 345.188 300.125C344.719 300.656 344.375 301.188 344.156 301.719C343.969 302.156 343.719 302.531 343.406 302.844L342.844 304.062C342.75 304.25 342.656 304.453 342.562 304.672C342.469 304.859 342.375 305.062 342.281 305.281C342.062 305.906 341.938 306.453 341.906 306.922C341.875 307.359 341.75 307.969 341.531 308.75C341.406 309.281 341.172 309.859 340.828 310.484C340.672 310.797 340.516 311.109 340.359 311.422C340.203 311.703 340.062 312 339.938 312.312C339.781 312.594 339.641 312.875 339.516 313.156C339.391 313.438 339.266 313.719 339.141 314C339.016 314.281 338.891 314.562 338.766 314.844C338.641 315.125 338.5 315.406 338.344 315.688ZM394.219 323.938L394.125 324.688C394.188 324.906 394.125 325.281 393.938 325.812C393.625 326.188 393.438 326.594 393.375 327.031C393.25 327.281 393.141 327.5 393.047 327.688C392.953 327.875 392.875 328.125 392.812 328.438C392.688 328.812 392.641 329.25 392.672 329.75C392.703 330 392.703 330.25 392.672 330.5C392.672 330.719 392.656 330.938 392.625 331.156C392.5 331.844 392.406 332.516 392.344 333.172C392.281 333.828 392.219 334.5 392.156 335.188C392.156 335.875 392.094 336.656 391.969 337.531C391.844 338.406 391.719 339.188 391.594 339.875C391.875 340.375 392.031 340.844 392.062 341.281C392.094 341.75 392.312 342.156 392.719 342.5C393.969 342.312 394.969 342.016 395.719 341.609C396.469 341.203 397.188 340.625 397.875 339.875C398.375 339.656 398.766 339.438 399.047 339.219C399.297 339 399.656 338.75 400.125 338.469L400.875 337.719C401.625 337.312 402.047 337.062 402.141 336.969C402.203 336.906 402.281 336.844 402.375 336.781C402.5 336.719 402.625 336.656 402.75 336.594C403.812 335.906 404.625 335.188 405.188 334.438C405.656 334.062 406.047 333.672 406.359 333.266C406.609 332.922 407.094 332.594 407.812 332.281C408.219 331.781 408.672 331.359 409.172 331.016C409.672 330.672 410.125 330.25 410.531 329.75C410.875 329.75 411.125 329.812 411.281 329.938C411.375 330 411.469 330.062 411.562 330.125C411.688 330.188 411.812 330.25 411.938 330.312C412.125 330.812 412.156 331.328 412.031 331.859C411.906 332.391 411.688 332.875 411.375 333.312C411.062 333.719 410.906 333.969 410.906 334.062C410.906 334.125 410.875 334.188 410.812 334.25C410.625 334.469 410.391 334.703 410.109 334.953C409.828 335.172 409.594 335.406 409.406 335.656C409.094 336.219 408.844 336.5 408.656 336.5C408.469 336.5 408.312 336.562 408.188 336.688C407.625 337.031 407.234 337.281 407.016 337.438C406.766 337.656 406.406 337.906 405.938 338.188C405.281 338.531 404.875 338.781 404.719 338.938C404.562 339.094 404.438 339.188 404.344 339.219C403.594 340.062 402.859 340.766 402.141 341.328C401.484 341.828 400.781 342.531 400.031 343.438C399.781 343.625 399.531 343.812 399.281 344C399.031 344.188 398.812 344.438 398.625 344.75C398.062 345.125 397.609 345.5 397.266 345.875C396.922 346.25 396.531 346.688 396.094 347.188C395.719 347.375 395.312 347.641 394.875 347.984C394.344 348.391 393.875 348.688 393.469 348.875C393.312 348.969 393.047 349.109 392.672 349.297C392.359 349.453 392.062 349.531 391.781 349.531C391.062 349.656 390.375 349.594 389.719 349.344C389.125 349.125 388.531 348.938 387.938 348.781C387.688 348.406 387.375 348.094 387 347.844C386.438 347.156 386.031 346.344 385.781 345.406C385.531 344.469 385.281 343.469 385.031 342.406C384.469 342.781 384 343.188 383.625 343.625C383.25 344.094 382.688 344.5 381.938 344.844C381.312 345.438 380.672 346.031 380.016 346.625C379.359 347.188 378.672 347.734 377.953 348.266C377.266 348.797 376.562 349.359 375.844 349.953C375.125 350.516 374.406 351.094 373.688 351.688C373.188 352.188 372.844 352.375 372.656 352.25C372.094 352.938 371.094 353.156 369.656 352.906C369.156 352.656 368.594 352.438 367.969 352.25C367.531 352.125 367.031 351.938 366.469 351.688C365.406 351.5 364.516 351.031 363.797 350.281C363.078 349.531 362.469 348.656 361.969 347.656C361.781 347.125 361.641 346.656 361.547 346.25C361.516 346.031 361.469 345.797 361.406 345.547C361.344 345.297 361.281 345.031 361.219 344.75C361.188 344.219 361.094 343.797 360.938 343.484C360.812 343.141 360.812 342.812 360.938 342.5C360.812 342.344 360.781 342.141 360.844 341.891C360.906 341.578 360.938 341.344 360.938 341.188C360.875 340.312 360.953 339.375 361.172 338.375C361.391 337.375 361.688 336.469 362.062 335.656C362.25 335.344 362.5 335.031 362.812 334.719C362.969 334.531 363.062 334.344 363.094 334.156C363.125 334 363.219 333.844 363.375 333.688C363.531 333.5 363.719 333.312 363.938 333.125C364.25 332.875 364.469 332.688 364.594 332.562C364.75 332.344 364.906 332.141 365.062 331.953C365.25 331.734 365.453 331.547 365.672 331.391C365.891 331.234 366.094 331.062 366.281 330.875C366.469 330.688 366.656 330.5 366.844 330.312C367.062 330.094 367.234 329.875 367.359 329.656C367.516 329.406 367.75 329.219 368.062 329.094C368.312 328.656 368.594 328.297 368.906 328.016C369.219 327.734 369.562 327.438 369.938 327.125C371 325.844 372.312 324.75 373.875 323.844C375.469 322.938 376.875 321.938 378.094 320.844C378.531 320.656 378.906 320.438 379.219 320.188C379.531 319.938 379.844 319.688 380.156 319.438C380.938 318.75 381.781 318.531 382.688 318.781L385.125 319.438C385.75 320 386.359 320.562 386.953 321.125C387.547 321.688 388.062 322.312 388.5 323C388.719 322.969 388.953 322.953 389.203 322.953C389.453 322.922 389.719 322.922 390 322.953C390.562 323.016 391.156 322.969 391.781 322.812C391.969 322.812 392.156 322.766 392.344 322.672C392.531 322.578 392.688 322.531 392.812 322.531C393.75 322.844 394.219 323.312 394.219 323.938ZM381.844 325.344C380.156 326.156 378.625 327.109 377.25 328.203C375.875 329.297 374.562 330.469 373.312 331.719C373.156 331.875 372.984 332.031 372.797 332.188C372.641 332.312 372.484 332.453 372.328 332.609C372.172 332.734 372.016 332.875 371.859 333.031C371.703 333.188 371.562 333.344 371.438 333.5C371.188 333.812 370.953 334.188 370.734 334.625C370.516 335.062 370.312 335.469 370.125 335.844C370.062 335.969 370 336.094 369.938 336.219C369.875 336.312 369.812 336.391 369.75 336.453C369.688 336.516 369.625 336.594 369.562 336.688C369.5 336.781 369.438 336.875 369.375 336.969C369.25 337.281 369.203 337.594 369.234 337.906C369.266 338.125 369.281 338.469 369.281 338.938V339.875C369.281 340.062 369.312 340.375 369.375 340.812C369.562 341.5 369.656 342.188 369.656 342.875C369.656 343.375 369.703 343.984 369.797 344.703C369.891 345.422 370.125 345.906 370.5 346.156C370.906 346.406 371.297 346.469 371.672 346.344C372.109 346.188 372.469 346.094 372.75 346.062C374.938 344.375 377 342.609 378.938 340.766C380.875 338.922 382.594 336.844 384.094 334.531C383.969 333 383.953 331.422 384.047 329.797C384.141 328.266 384 326.844 383.625 325.531C383.375 325.375 383.078 325.328 382.734 325.391C382.484 325.422 382.188 325.406 381.844 325.344ZM431.719 342.594C431.969 342.25 432.156 342.016 432.281 341.891C432.438 341.734 432.625 341.594 432.844 341.469C433.625 339.812 434.641 338.5 435.891 337.531C437.172 336.562 438.531 335.469 439.969 334.25C440.281 334.25 440.547 334.141 440.766 333.922C440.984 333.703 441.25 333.531 441.562 333.406C441.938 333.062 442.297 332.781 442.641 332.562C442.922 332.375 443.156 332.125 443.344 331.812C444.062 331.469 444.734 331 445.359 330.406C446.016 329.812 446.656 329.281 447.281 328.812C447.781 328.688 448.312 328.75 448.875 329C449.125 329.5 449.219 330.031 449.156 330.594C449.094 331.156 448.781 331.469 448.219 331.531C448.031 331.719 447.828 331.906 447.609 332.094C447.391 332.281 447.125 332.406 446.812 332.469C446.188 332.594 445.781 332.844 445.594 333.219C445.562 333.812 445.484 334.172 445.359 334.297C445.234 334.422 445.156 334.531 445.125 334.625C444.438 335.781 443.672 336.781 442.828 337.625C441.984 338.438 441.188 339.438 440.438 340.625C440.094 340.844 439.812 341.188 439.594 341.656C438.469 342.281 437.641 342.766 437.109 343.109C436.578 343.453 436.094 343.875 435.656 344.375C435.281 344.594 435.094 344.781 435.094 344.938C435.094 345.062 435.031 345.188 434.906 345.312C434.281 345.844 433.922 346.234 433.828 346.484C433.734 346.734 433.594 346.938 433.406 347.094C433.094 347.312 432.812 347.531 432.562 347.75C432.344 347.938 432.156 348.109 432 348.266C431.625 348.641 431.219 348.906 430.781 349.062C430.25 349.5 429.469 350.016 428.438 350.609C427.406 351.234 426.344 351.703 425.25 352.016C424.156 352.359 423.25 352.375 422.531 352.062L421.875 351.547C421.75 351.453 421.531 351.312 421.219 351.125C420.812 350.625 420.359 350.203 419.859 349.859C419.422 349.547 419 349.094 418.594 348.5C418.125 347.844 417.828 347.172 417.703 346.484C417.578 345.766 417.344 345.062 417 344.375C416.844 342.75 416.969 341.406 417.375 340.344C417.719 339.281 418.094 338.297 418.5 337.391C418.906 336.453 419.359 335.594 419.859 334.812C420.828 333.312 421.5 331.531 421.875 329.469C421.188 328.781 420.797 328.141 420.703 327.547C420.672 327.234 420.609 326.875 420.516 326.469C420.422 326.062 420.312 325.594 420.188 325.062C418.562 326.125 417.062 327.469 415.688 329.094C414.312 330.719 413.094 332.375 412.031 334.062L410.906 336.125C410.594 336.719 410.219 337.281 409.781 337.812C409.469 338.125 409.312 338.328 409.312 338.422C409.312 338.516 409.25 338.625 409.125 338.75C408.875 339.062 408.672 339.328 408.516 339.547C408.359 339.766 408.25 339.938 408.188 340.062C408.125 340.188 408.062 340.312 408 340.438C407.938 340.531 407.875 340.625 407.812 340.719C407.625 340.969 407.469 341.156 407.344 341.281C407.219 341.406 407.062 341.594 406.875 341.844C406 343.094 405.203 344.266 404.484 345.359L402.281 348.688C401.938 349.219 401.656 349.75 401.438 350.281C401.219 350.844 400.906 351.344 400.5 351.781C399.875 351.844 399.516 351.75 399.422 351.5C399.328 351.25 399.344 351.031 399.469 350.844C398.719 350.344 398.297 349.375 398.203 347.938C398.109 346.5 398.25 345.344 398.625 344.469C398.438 343.906 398.375 343.594 398.438 343.531C398.5 343.469 398.531 343.375 398.531 343.25C399.344 342.125 400.172 341 401.016 339.875C401.859 338.75 402.75 337.688 403.688 336.688C403.844 336.469 404 336.25 404.156 336.031C404.312 335.812 404.453 335.594 404.578 335.375C404.891 334.906 405.219 334.5 405.562 334.156C406.094 333.25 406.734 332.312 407.484 331.344C408.234 330.406 408.844 329.438 409.312 328.438C409.656 328.094 409.891 327.75 410.016 327.406C410.172 327.031 410.438 326.719 410.812 326.469C411.031 326.094 411.219 325.734 411.375 325.391C411.562 325.016 411.719 324.656 411.844 324.312C412.031 323.719 412.375 323.125 412.875 322.531C413 322.094 413.156 321.75 413.344 321.5C413.531 321.25 413.781 320.969 414.094 320.656C414.125 320.375 414.297 320.109 414.609 319.859C414.922 319.609 415.156 319.344 415.312 319.062C415.469 318.625 415.625 318.344 415.781 318.219C415.969 318.062 416.062 317.844 416.062 317.562C416.375 317.25 416.688 316.922 417 316.578C417.312 316.234 417.594 315.812 417.844 315.312C418.719 314.812 419.328 314.562 419.672 314.562C420.016 314.562 420.281 314.406 420.469 314.094C420.719 314.094 420.984 314.094 421.266 314.094C421.578 314.094 421.906 314.078 422.25 314.047C422.969 313.984 423.344 314.219 423.375 314.75C423.406 314.875 423.406 315.031 423.375 315.219C423.344 315.312 423.312 315.406 423.281 315.5C423.25 315.594 423.219 315.688 423.188 315.781C423.219 316.344 423.219 316.641 423.188 316.672C423.125 316.734 423.094 316.781 423.094 316.812C423.031 317.062 423.016 317.281 423.047 317.469C423.078 317.625 423.094 317.906 423.094 318.312C423.062 318.562 423.031 318.781 423 318.969C422.969 319.156 422.938 319.328 422.906 319.484C422.844 319.797 422.969 320.156 423.281 320.562C423.438 320.781 423.625 320.953 423.844 321.078C424.062 321.203 424.281 321.406 424.5 321.688C424.656 321.844 424.766 322.031 424.828 322.25C424.891 322.469 425 322.656 425.156 322.812C425.281 322.969 425.469 323.125 425.719 323.281C425.969 323.438 426.156 323.656 426.281 323.938C426.625 324.188 426.734 324.344 426.609 324.406C426.516 324.469 426.656 324.594 427.031 324.781C427.75 325.688 428.281 326.656 428.625 327.688C429.031 328.469 429.375 329.094 429.656 329.562C429.969 330.062 429.969 330.562 429.656 331.062C429.469 331.25 429.25 331.625 429 332.188C428.719 332.469 428.469 332.781 428.25 333.125C428.125 333.344 428.031 333.578 427.969 333.828C427.938 334.047 427.844 334.25 427.688 334.438C427.125 335.344 426.547 336.156 425.953 336.875C425.359 337.594 424.844 338.375 424.406 339.219C424.438 341 424.781 342.312 425.438 343.156C426.188 344.031 426.656 344.469 426.844 344.469C427.25 344.531 427.688 344.406 428.156 344.094L429.375 343.344C429.5 343.281 429.609 343.219 429.703 343.156C429.828 343.094 429.938 343.031 430.031 342.969C430.219 342.844 430.438 342.75 430.688 342.688C431.344 342.469 431.656 342.391 431.625 342.453C431.594 342.547 431.625 342.594 431.719 342.594ZM468.562 323.938L468.469 324.688C468.531 324.906 468.469 325.281 468.281 325.812C467.969 326.188 467.781 326.594 467.719 327.031C467.594 327.281 467.484 327.5 467.391 327.688C467.297 327.875 467.219 328.125 467.156 328.438C467.031 328.812 466.984 329.25 467.016 329.75C467.047 330 467.047 330.25 467.016 330.5C467.016 330.719 467 330.938 466.969 331.156C466.844 331.844 466.75 332.516 466.688 333.172C466.625 333.828 466.562 334.5 466.5 335.188C466.5 335.875 466.438 336.656 466.312 337.531C466.188 338.406 466.062 339.188 465.938 339.875C466.219 340.375 466.375 340.844 466.406 341.281C466.438 341.75 466.656 342.156 467.062 342.5C468.312 342.312 469.312 342.016 470.062 341.609C470.812 341.203 471.531 340.625 472.219 339.875C472.719 339.656 473.109 339.438 473.391 339.219C473.641 339 474 338.75 474.469 338.469L475.219 337.719C475.969 337.312 476.391 337.062 476.484 336.969C476.547 336.906 476.625 336.844 476.719 336.781C476.844 336.719 476.969 336.656 477.094 336.594C478.156 335.906 478.969 335.188 479.531 334.438C480 334.062 480.391 333.672 480.703 333.266C480.953 332.922 481.438 332.594 482.156 332.281C482.562 331.781 483.016 331.359 483.516 331.016C484.016 330.672 484.469 330.25 484.875 329.75C485.219 329.75 485.469 329.812 485.625 329.938C485.719 330 485.812 330.062 485.906 330.125C486.031 330.188 486.156 330.25 486.281 330.312C486.469 330.812 486.5 331.328 486.375 331.859C486.25 332.391 486.031 332.875 485.719 333.312C485.406 333.719 485.25 333.969 485.25 334.062C485.25 334.125 485.219 334.188 485.156 334.25C484.969 334.469 484.734 334.703 484.453 334.953C484.172 335.172 483.938 335.406 483.75 335.656C483.438 336.219 483.188 336.5 483 336.5C482.812 336.5 482.656 336.562 482.531 336.688C481.969 337.031 481.578 337.281 481.359 337.438C481.109 337.656 480.75 337.906 480.281 338.188C479.625 338.531 479.219 338.781 479.062 338.938C478.906 339.094 478.781 339.188 478.688 339.219C477.938 340.062 477.203 340.766 476.484 341.328C475.828 341.828 475.125 342.531 474.375 343.438C474.125 343.625 473.875 343.812 473.625 344C473.375 344.188 473.156 344.438 472.969 344.75C472.406 345.125 471.953 345.5 471.609 345.875C471.266 346.25 470.875 346.688 470.438 347.188C470.062 347.375 469.656 347.641 469.219 347.984C468.688 348.391 468.219 348.688 467.812 348.875C467.656 348.969 467.391 349.109 467.016 349.297C466.703 349.453 466.406 349.531 466.125 349.531C465.406 349.656 464.719 349.594 464.062 349.344C463.469 349.125 462.875 348.938 462.281 348.781C462.031 348.406 461.719 348.094 461.344 347.844C460.781 347.156 460.375 346.344 460.125 345.406C459.875 344.469 459.625 343.469 459.375 342.406C458.812 342.781 458.344 343.188 457.969 343.625C457.594 344.094 457.031 344.5 456.281 344.844C455.656 345.438 455.016 346.031 454.359 346.625C453.703 347.188 453.016 347.734 452.297 348.266C451.609 348.797 450.906 349.359 450.188 349.953C449.469 350.516 448.75 351.094 448.031 351.688C447.531 352.188 447.188 352.375 447 352.25C446.438 352.938 445.438 353.156 444 352.906C443.5 352.656 442.938 352.438 442.312 352.25C441.875 352.125 441.375 351.938 440.812 351.688C439.75 351.5 438.859 351.031 438.141 350.281C437.422 349.531 436.812 348.656 436.312 347.656C436.125 347.125 435.984 346.656 435.891 346.25C435.859 346.031 435.812 345.797 435.75 345.547C435.688 345.297 435.625 345.031 435.562 344.75C435.531 344.219 435.438 343.797 435.281 343.484C435.156 343.141 435.156 342.812 435.281 342.5C435.156 342.344 435.125 342.141 435.188 341.891C435.25 341.578 435.281 341.344 435.281 341.188C435.219 340.312 435.297 339.375 435.516 338.375C435.734 337.375 436.031 336.469 436.406 335.656C436.594 335.344 436.844 335.031 437.156 334.719C437.312 334.531 437.406 334.344 437.438 334.156C437.469 334 437.562 333.844 437.719 333.688C437.875 333.5 438.062 333.312 438.281 333.125C438.594 332.875 438.812 332.688 438.938 332.562C439.094 332.344 439.25 332.141 439.406 331.953C439.594 331.734 439.797 331.547 440.016 331.391C440.234 331.234 440.438 331.062 440.625 330.875C440.812 330.688 441 330.5 441.188 330.312C441.406 330.094 441.578 329.875 441.703 329.656C441.859 329.406 442.094 329.219 442.406 329.094C442.656 328.656 442.938 328.297 443.25 328.016C443.562 327.734 443.906 327.438 444.281 327.125C445.344 325.844 446.656 324.75 448.219 323.844C449.812 322.938 451.219 321.938 452.438 320.844C452.875 320.656 453.25 320.438 453.562 320.188C453.875 319.938 454.188 319.688 454.5 319.438C455.281 318.75 456.125 318.531 457.031 318.781L459.469 319.438C460.094 320 460.703 320.562 461.297 321.125C461.891 321.688 462.406 322.312 462.844 323C463.062 322.969 463.297 322.953 463.547 322.953C463.797 322.922 464.062 322.922 464.344 322.953C464.906 323.016 465.5 322.969 466.125 322.812C466.312 322.812 466.5 322.766 466.688 322.672C466.875 322.578 467.031 322.531 467.156 322.531C468.094 322.844 468.562 323.312 468.562 323.938ZM456.188 325.344C454.5 326.156 452.969 327.109 451.594 328.203C450.219 329.297 448.906 330.469 447.656 331.719C447.5 331.875 447.328 332.031 447.141 332.188C446.984 332.312 446.828 332.453 446.672 332.609C446.516 332.734 446.359 332.875 446.203 333.031C446.047 333.188 445.906 333.344 445.781 333.5C445.531 333.812 445.297 334.188 445.078 334.625C444.859 335.062 444.656 335.469 444.469 335.844C444.406 335.969 444.344 336.094 444.281 336.219C444.219 336.312 444.156 336.391 444.094 336.453C444.031 336.516 443.969 336.594 443.906 336.688C443.844 336.781 443.781 336.875 443.719 336.969C443.594 337.281 443.547 337.594 443.578 337.906C443.609 338.125 443.625 338.469 443.625 338.938V339.875C443.625 340.062 443.656 340.375 443.719 340.812C443.906 341.5 444 342.188 444 342.875C444 343.375 444.047 343.984 444.141 344.703C444.234 345.422 444.469 345.906 444.844 346.156C445.25 346.406 445.641 346.469 446.016 346.344C446.453 346.188 446.812 346.094 447.094 346.062C449.281 344.375 451.344 342.609 453.281 340.766C455.219 338.922 456.938 336.844 458.438 334.531C458.312 333 458.297 331.422 458.391 329.797C458.484 328.266 458.344 326.844 457.969 325.531C457.719 325.375 457.422 325.328 457.078 325.391C456.828 325.422 456.531 325.406 456.188 325.344ZM517.781 328.438C518.406 329.219 518.703 329.75 518.672 330.031C518.641 330.25 518.625 330.594 518.625 331.062C518.312 331.406 518.062 331.797 517.875 332.234C517.719 332.609 517.438 332.969 517.031 333.312C516.656 333.562 516.328 333.734 516.047 333.828C515.672 333.922 515.375 334.125 515.156 334.438C514.719 334.594 514.406 334.75 514.219 334.906C514 335.094 513.625 335.156 513.094 335.094C511.594 336.594 510.266 337.812 509.109 338.75C507.953 339.688 506.75 340.594 505.5 341.469C504.562 342.281 503.578 343.031 502.547 343.719C501.516 344.406 500.469 345.094 499.406 345.781C499 346.188 498.719 346.484 498.562 346.672C498.344 346.953 498.031 347.188 497.625 347.375C496.906 348.094 496.141 348.766 495.328 349.391C494.922 349.703 494.531 350 494.156 350.281C493.812 350.594 493.469 350.906 493.125 351.219C492.438 351.719 491.703 352.062 490.922 352.25C490.109 352.438 489.375 352.688 488.719 353C487.531 353.531 486.625 353.625 486 353.281L484.266 353.609C483.797 353.703 483.219 353.656 482.531 353.469C482.344 353.406 482.156 353.312 481.969 353.188C481.875 353.125 481.766 353.062 481.641 353C481.547 352.938 481.438 352.875 481.312 352.812C480.688 352.562 480.203 352.297 479.859 352.016C479.516 351.734 479.219 351.469 478.969 351.219C478.781 351.031 478.562 350.766 478.312 350.422C478.062 350.078 477.875 349.781 477.75 349.531C477.438 349.031 477.234 348.422 477.141 347.703C477.047 346.984 476.906 346.281 476.719 345.594C476.594 344.969 476.406 344.281 476.156 343.531C475.938 342.844 475.844 342.125 475.875 341.375C475.906 341.125 475.953 340.875 476.016 340.625C476.078 340.375 476.141 340.141 476.203 339.922L476.625 338.469C476.812 338.031 476.984 337.609 477.141 337.203C477.297 336.797 477.438 336.406 477.562 336.031C477.781 335.344 478.062 334.625 478.406 333.875C478.594 333.562 478.797 333.312 479.016 333.125C479.234 332.938 479.438 332.688 479.625 332.375C479.719 332.281 479.797 332.094 479.859 331.812C479.922 331.5 480 331.281 480.094 331.156L481.688 329.422C481.969 329.109 482.234 328.797 482.484 328.484C482.734 328.172 482.969 327.844 483.188 327.5C483.344 327.281 483.5 327.078 483.656 326.891C483.844 326.672 484.016 326.484 484.172 326.328C484.328 326.172 484.484 326 484.641 325.812C484.828 325.594 485 325.375 485.156 325.156C485.5 324.688 485.766 324.391 485.953 324.266C486.109 324.172 486.25 324.031 486.375 323.844C486.75 323.469 487.094 323.078 487.406 322.672C487.719 322.266 488.031 321.844 488.344 321.406C488.562 321.188 488.781 320.969 489 320.75C489.25 320.5 489.484 320.25 489.703 320C490.141 319.531 490.625 319.125 491.156 318.781C491.75 318.438 492.328 318.156 492.891 317.938C493.203 317.812 493.516 317.688 493.828 317.562C494.141 317.406 494.469 317.25 494.812 317.094C495.156 316.938 495.453 316.781 495.703 316.625C495.953 316.469 496.25 316.312 496.594 316.156C496.969 316 497.312 315.906 497.625 315.875C497.906 315.844 498.188 315.688 498.469 315.406C498.844 315.469 499.188 315.406 499.5 315.219C499.812 315.031 500.125 314.875 500.438 314.75C500.75 314.719 501.047 314.719 501.328 314.75C501.609 314.812 501.844 314.75 502.031 314.562C502.188 314.688 502.391 314.75 502.641 314.75C502.859 314.75 503.031 314.812 503.156 314.938C503.75 315.094 504.125 315.531 504.281 316.25C504.406 317.188 504.172 318.156 503.578 319.156C502.984 320.156 502.469 320.906 502.031 321.406C501.5 322.281 500.719 323.031 499.688 323.656C498.969 323.656 498.203 323.703 497.391 323.797C496.547 323.891 495.844 323.875 495.281 323.75C495.125 324.031 494.953 324.203 494.766 324.266C494.516 324.359 494.469 324.531 494.625 324.781C492.5 326.594 490.625 328.516 489 330.547C487.375 332.578 486.094 334.969 485.156 337.719C484.812 338.844 484.5 339.609 484.219 340.016C483.906 340.453 483.75 340.938 483.75 341.469C484.125 342.781 484.75 343.891 485.625 344.797C486.5 345.703 487.375 346.219 488.25 346.344C489.25 346.469 490.141 346.281 490.922 345.781C491.734 345.25 492.469 344.812 493.125 344.469C493.562 344.156 494 343.859 494.438 343.578C494.875 343.297 495.297 343.031 495.703 342.781L498.375 341.188C498.625 341.062 498.875 340.922 499.125 340.766C499.375 340.609 499.625 340.438 499.875 340.25C500.625 339.719 501.359 339.172 502.078 338.609C502.422 338.359 502.75 338.109 503.062 337.859C503.406 337.578 503.75 337.312 504.094 337.062C504.375 337.031 504.609 336.922 504.797 336.734C504.953 336.578 505.188 336.5 505.5 336.5C506.625 335.5 507.844 334.609 509.156 333.828C510.469 333.047 511.844 332.25 513.281 331.438C513.781 330.938 514.234 330.547 514.641 330.266C515.047 329.984 515.5 329.594 516 329.094C516.438 329.094 516.75 328.984 516.938 328.766C517.125 328.547 517.406 328.438 517.781 328.438ZM540.469 323.938L540.375 324.688C540.438 324.906 540.375 325.281 540.188 325.812C539.875 326.188 539.688 326.594 539.625 327.031C539.5 327.281 539.391 327.5 539.297 327.688C539.203 327.875 539.125 328.125 539.062 328.438C538.938 328.812 538.891 329.25 538.922 329.75C538.953 330 538.953 330.25 538.922 330.5C538.922 330.719 538.906 330.938 538.875 331.156C538.75 331.844 538.656 332.516 538.594 333.172C538.531 333.828 538.469 334.5 538.406 335.188C538.406 335.875 538.344 336.656 538.219 337.531C538.094 338.406 537.969 339.188 537.844 339.875C538.125 340.375 538.281 340.844 538.312 341.281C538.344 341.75 538.562 342.156 538.969 342.5C540.219 342.312 541.219 342.016 541.969 341.609C542.719 341.203 543.438 340.625 544.125 339.875C544.625 339.656 545.016 339.438 545.297 339.219C545.547 339 545.906 338.75 546.375 338.469L547.125 337.719C547.875 337.312 548.297 337.062 548.391 336.969C548.453 336.906 548.531 336.844 548.625 336.781C548.75 336.719 548.875 336.656 549 336.594C550.062 335.906 550.875 335.188 551.438 334.438C551.906 334.062 552.297 333.672 552.609 333.266C552.859 332.922 553.344 332.594 554.062 332.281C554.469 331.781 554.922 331.359 555.422 331.016C555.922 330.672 556.375 330.25 556.781 329.75C557.125 329.75 557.375 329.812 557.531 329.938C557.625 330 557.719 330.062 557.812 330.125C557.938 330.188 558.062 330.25 558.188 330.312C558.375 330.812 558.406 331.328 558.281 331.859C558.156 332.391 557.938 332.875 557.625 333.312C557.312 333.719 557.156 333.969 557.156 334.062C557.156 334.125 557.125 334.188 557.062 334.25C556.875 334.469 556.641 334.703 556.359 334.953C556.078 335.172 555.844 335.406 555.656 335.656C555.344 336.219 555.094 336.5 554.906 336.5C554.719 336.5 554.562 336.562 554.438 336.688C553.875 337.031 553.484 337.281 553.266 337.438C553.016 337.656 552.656 337.906 552.188 338.188C551.531 338.531 551.125 338.781 550.969 338.938C550.812 339.094 550.688 339.188 550.594 339.219C549.844 340.062 549.109 340.766 548.391 341.328C547.734 341.828 547.031 342.531 546.281 343.438C546.031 343.625 545.781 343.812 545.531 344C545.281 344.188 545.062 344.438 544.875 344.75C544.312 345.125 543.859 345.5 543.516 345.875C543.172 346.25 542.781 346.688 542.344 347.188C541.969 347.375 541.562 347.641 541.125 347.984C540.594 348.391 540.125 348.688 539.719 348.875C539.562 348.969 539.297 349.109 538.922 349.297C538.609 349.453 538.312 349.531 538.031 349.531C537.312 349.656 536.625 349.594 535.969 349.344C535.375 349.125 534.781 348.938 534.188 348.781C533.938 348.406 533.625 348.094 533.25 347.844C532.688 347.156 532.281 346.344 532.031 345.406C531.781 344.469 531.531 343.469 531.281 342.406C530.719 342.781 530.25 343.188 529.875 343.625C529.5 344.094 528.938 344.5 528.188 344.844C527.562 345.438 526.922 346.031 526.266 346.625C525.609 347.188 524.922 347.734 524.203 348.266C523.516 348.797 522.812 349.359 522.094 349.953C521.375 350.516 520.656 351.094 519.938 351.688C519.438 352.188 519.094 352.375 518.906 352.25C518.344 352.938 517.344 353.156 515.906 352.906C515.406 352.656 514.844 352.438 514.219 352.25C513.781 352.125 513.281 351.938 512.719 351.688C511.656 351.5 510.766 351.031 510.047 350.281C509.328 349.531 508.719 348.656 508.219 347.656C508.031 347.125 507.891 346.656 507.797 346.25C507.766 346.031 507.719 345.797 507.656 345.547C507.594 345.297 507.531 345.031 507.469 344.75C507.438 344.219 507.344 343.797 507.188 343.484C507.062 343.141 507.062 342.812 507.188 342.5C507.062 342.344 507.031 342.141 507.094 341.891C507.156 341.578 507.188 341.344 507.188 341.188C507.125 340.312 507.203 339.375 507.422 338.375C507.641 337.375 507.938 336.469 508.312 335.656C508.5 335.344 508.75 335.031 509.062 334.719C509.219 334.531 509.312 334.344 509.344 334.156C509.375 334 509.469 333.844 509.625 333.688C509.781 333.5 509.969 333.312 510.188 333.125C510.5 332.875 510.719 332.688 510.844 332.562C511 332.344 511.156 332.141 511.312 331.953C511.5 331.734 511.703 331.547 511.922 331.391C512.141 331.234 512.344 331.062 512.531 330.875C512.719 330.688 512.906 330.5 513.094 330.312C513.312 330.094 513.484 329.875 513.609 329.656C513.766 329.406 514 329.219 514.312 329.094C514.562 328.656 514.844 328.297 515.156 328.016C515.469 327.734 515.812 327.438 516.188 327.125C517.25 325.844 518.562 324.75 520.125 323.844C521.719 322.938 523.125 321.938 524.344 320.844C524.781 320.656 525.156 320.438 525.469 320.188C525.781 319.938 526.094 319.688 526.406 319.438C527.188 318.75 528.031 318.531 528.938 318.781L531.375 319.438C532 320 532.609 320.562 533.203 321.125C533.797 321.688 534.312 322.312 534.75 323C534.969 322.969 535.203 322.953 535.453 322.953C535.703 322.922 535.969 322.922 536.25 322.953C536.812 323.016 537.406 322.969 538.031 322.812C538.219 322.812 538.406 322.766 538.594 322.672C538.781 322.578 538.938 322.531 539.062 322.531C540 322.844 540.469 323.312 540.469 323.938ZM528.094 325.344C526.406 326.156 524.875 327.109 523.5 328.203C522.125 329.297 520.812 330.469 519.562 331.719C519.406 331.875 519.234 332.031 519.047 332.188C518.891 332.312 518.734 332.453 518.578 332.609C518.422 332.734 518.266 332.875 518.109 333.031C517.953 333.188 517.812 333.344 517.688 333.5C517.438 333.812 517.203 334.188 516.984 334.625C516.766 335.062 516.562 335.469 516.375 335.844C516.312 335.969 516.25 336.094 516.188 336.219C516.125 336.312 516.062 336.391 516 336.453C515.938 336.516 515.875 336.594 515.812 336.688C515.75 336.781 515.688 336.875 515.625 336.969C515.5 337.281 515.453 337.594 515.484 337.906C515.516 338.125 515.531 338.469 515.531 338.938V339.875C515.531 340.062 515.562 340.375 515.625 340.812C515.812 341.5 515.906 342.188 515.906 342.875C515.906 343.375 515.953 343.984 516.047 344.703C516.141 345.422 516.375 345.906 516.75 346.156C517.156 346.406 517.547 346.469 517.922 346.344C518.359 346.188 518.719 346.094 519 346.062C521.188 344.375 523.25 342.609 525.188 340.766C527.125 338.922 528.844 336.844 530.344 334.531C530.219 333 530.203 331.422 530.297 329.797C530.391 328.266 530.25 326.844 529.875 325.531C529.625 325.375 529.328 325.328 528.984 325.391C528.734 325.422 528.438 325.406 528.094 325.344Z" fill="black"/>
</svg>
